<svg width="26" height="30" viewBox="0 0 26 30" fill="none" xmlns="http://www.w3.org/2000/svg">
<path d="M25.25 29.625C25.0625 29.5625 24.9375 29.4375 24.9375 29.3125C21 25.75 17.1875 21.9375 13.5625 17.9375C11.1875 21.5 9 25.0625 6.9375 28.5C6.6875 28.8125 6.3125 29 5.9375 29C5.6875 29 5.375 28.9375 5 28.8125C4.0625 28.375 3.25 27.75 2.5625 26.8125C2.125 26.1875 1.9375 25.625 1.9375 25.125C1.9375 24.875 1.9375 24.625 2.0625 24.4375C4.0625 20.5 6.375 16.75 9.125 13.125L7.25 11.1875C4.875 8.9375 2.8125 6.4375 1.1875 3.75C0.875 3.1875 0.75 2.75 0.75 2.375C0.75 1.625 1.25 1.3125 2.3125 1.3125C3.125 1.375 3.875 1.6875 4.5625 2.3125C7.0625 4.5625 9.5625 7 12 9.5625C13.6875 7.5 15.4375 5.6875 17.3125 4C19.125 2.3125 21.1875 1.1875 23.5 0.5625C23.5625 0.5625 23.75 0.6875 24.0625 0.875C24.375 1.125 24.6875 1.4375 25 1.8125C24.25 3.6875 22.875 5.75 20.9375 7.875C18.9375 10.3125 17.375 12.375 16.125 14.125C20.6875 19.4375 23.5625 23.875 24.6875 27.3125C25.0625 28.5625 25.3125 29.25 25.3125 29.4375L25.25 29.625Z" fill="#D60117"/>
</svg>
