<svg width="24" height="25" viewBox="0 0 24 25" fill="none" xmlns="http://www.w3.org/2000/svg">
<g clip-path="url(#clip0_219_1575)">
<path fill-rule="evenodd" clip-rule="evenodd" d="M12.707 16.207C12.5195 16.3945 12.2652 16.4998 12 16.4998C11.7348 16.4998 11.4805 16.3945 11.293 16.207L5.636 10.55C5.54049 10.4578 5.46431 10.3474 5.4119 10.2254C5.35949 10.1034 5.3319 9.97219 5.33075 9.83941C5.3296 9.70663 5.3549 9.57495 5.40518 9.45205C5.45546 9.32916 5.52971 9.2175 5.6236 9.12361C5.7175 9.02972 5.82915 8.95547 5.95205 8.90519C6.07494 8.8549 6.20662 8.8296 6.3394 8.83076C6.47218 8.83191 6.6034 8.8595 6.7254 8.91191C6.84741 8.96431 6.95775 9.0405 7.05 9.13601L12 14.086L16.95 9.13601C17.1386 8.95385 17.3912 8.85305 17.6534 8.85533C17.9156 8.85761 18.1664 8.96278 18.3518 9.14819C18.5372 9.3336 18.6424 9.58441 18.6447 9.84661C18.647 10.1088 18.5462 10.3614 18.364 10.55L12.707 16.207Z" fill="#8F8F8F"/>
</g>
<defs>
<clipPath id="clip0_219_1575">
<rect width="24" height="24" fill="white" transform="translate(0 0.5)"/>
</clipPath>
</defs>
</svg>
