<svg width="14" height="14" viewBox="0 0 14 14" fill="none" xmlns="http://www.w3.org/2000/svg">
<g clip-path="url(#clip0_1870_568)">
<path d="M12.6875 4.375C12.8652 4.375 13.0339 4.40918 13.1934 4.47754C13.3529 4.5459 13.4919 4.63932 13.6104 4.75781C13.7288 4.8763 13.8245 5.0153 13.8975 5.1748C13.9704 5.33431 14.0046 5.50521 14 5.6875C14 5.83333 13.9772 5.97233 13.9316 6.10449L12.1816 11.3545C12.1361 11.4867 12.0723 11.6074 11.9902 11.7168C11.9082 11.8262 11.8125 11.9219 11.7031 12.0039C11.5938 12.0859 11.4753 12.1452 11.3477 12.1816C11.2201 12.2181 11.0833 12.2409 10.9375 12.25H7.4375C6.62174 12.25 5.83561 12.0928 5.0791 11.7783C4.75098 11.6462 4.42285 11.5459 4.09473 11.4775C3.7666 11.4092 3.42253 11.375 3.0625 11.375H0V5.25H2.85059C3.14681 5.25 3.4248 5.19531 3.68457 5.08594C3.94434 4.97656 4.18132 4.81706 4.39551 4.60742L8.64746 0.362305C8.76139 0.248372 8.87533 0.159505 8.98926 0.0957031C9.10319 0.031901 9.24219 0 9.40625 0C9.55664 0 9.69792 0.0273438 9.83008 0.0820312C9.96224 0.136719 10.0785 0.216471 10.1787 0.321289C10.279 0.426107 10.3564 0.542318 10.4111 0.669922C10.4658 0.797526 10.4954 0.938802 10.5 1.09375C10.5 1.46289 10.459 1.8138 10.377 2.14648C10.2949 2.47917 10.1742 2.81185 10.0146 3.14453C9.9235 3.34049 9.84603 3.53874 9.78223 3.73926C9.71842 3.93978 9.67513 4.15169 9.65234 4.375H12.6875ZM10.9375 11.375C11.0286 11.375 11.113 11.3477 11.1904 11.293C11.2679 11.2383 11.3226 11.1654 11.3545 11.0742C11.3773 11.0104 11.4183 10.8874 11.4775 10.7051C11.5368 10.5228 11.612 10.304 11.7031 10.0488C11.7943 9.79362 11.89 9.51107 11.9902 9.20117C12.0905 8.89128 12.1953 8.5791 12.3047 8.26465C12.4141 7.9502 12.5143 7.64486 12.6055 7.34863C12.6966 7.05241 12.7855 6.78353 12.8721 6.54199C12.9587 6.30046 13.0202 6.10449 13.0566 5.9541C13.0931 5.80371 13.1159 5.71484 13.125 5.6875C13.125 5.56901 13.0817 5.46647 12.9951 5.37988C12.9085 5.29329 12.806 5.25 12.6875 5.25H8.75C8.75 5.00846 8.75456 4.78516 8.76367 4.58008C8.77279 4.375 8.79557 4.1722 8.83203 3.97168C8.86849 3.77116 8.91862 3.5752 8.98242 3.38379C9.04622 3.19238 9.13053 2.98503 9.23535 2.76172C9.36296 2.4974 9.45866 2.22852 9.52246 1.95508C9.58626 1.68164 9.62044 1.39453 9.625 1.09375C9.625 1.02995 9.60449 0.977539 9.56348 0.936523C9.52246 0.895508 9.47005 0.875 9.40625 0.875C9.37891 0.875 9.35612 0.884115 9.33789 0.902344C9.31966 0.920573 9.29915 0.941081 9.27637 0.963867L5.01758 5.22949C4.87174 5.37533 4.7168 5.50293 4.55273 5.6123C4.38867 5.72168 4.21094 5.8151 4.01953 5.89258C3.65495 6.04753 3.2653 6.125 2.85059 6.125H0.875V10.5H3.0625C3.8737 10.5 4.65983 10.6572 5.4209 10.9717C6.07715 11.2406 6.74935 11.375 7.4375 11.375H10.9375Z" fill="#5C5C5C"/>
</g>
<defs>
<clipPath id="clip0_1870_568">
<rect width="14" height="14" fill="white"/>
</clipPath>
</defs>
</svg>
