<svg width="14" height="14" viewBox="0 0 14 14" fill="none" xmlns="http://www.w3.org/2000/svg">
<g clip-path="url(#clip0_1870_570)">
<path d="M13.5002 5.675L13.5 5.675V5.6875C13.5 5.78028 13.4857 5.86401 13.459 5.9415L13.4589 5.94149L13.4573 5.94638L11.7082 11.1936C11.6793 11.2769 11.6399 11.3505 11.5902 11.4168C11.5366 11.4883 11.4746 11.5503 11.4031 11.6039C11.3411 11.6504 11.2774 11.6817 11.2103 11.7009C11.1245 11.7254 11.0284 11.7424 10.9209 11.75H7.4375C6.6879 11.75 5.96697 11.6059 5.27101 11.3166L5.27103 11.3166L5.26591 11.3145C4.91183 11.1719 4.55536 11.0628 4.1967 10.988C3.83266 10.9122 3.45428 10.875 3.0625 10.875H0.5V5.75H2.85059C3.20999 5.75 3.55431 5.6833 3.8786 5.54676C4.19991 5.41147 4.48899 5.21555 4.74524 4.96476L4.74526 4.96477L4.74878 4.96126L9.00073 0.716143L9.00101 0.715858C9.08975 0.627122 9.16773 0.568823 9.23356 0.531956C9.25605 0.519363 9.30615 0.5 9.40625 0.5C9.49447 0.5 9.57045 0.515714 9.6389 0.54404C9.70595 0.571785 9.76445 0.61155 9.81739 0.6669C9.87814 0.730413 9.92151 0.796754 9.95156 0.866882C9.97818 0.929003 9.99645 1.00539 9.99999 1.1017C9.99941 1.4306 9.96258 1.73848 9.89149 2.02678C9.81826 2.32378 9.70961 2.62422 9.56379 2.92837L9.56376 2.92835L9.56129 2.93367C9.46143 3.14835 9.37617 3.36637 9.30576 3.58766C9.23086 3.82308 9.18098 4.06895 9.15493 4.32424L9.09873 4.875H9.65234H12.6875C12.7992 4.875 12.9007 4.89608 12.9964 4.93711C13.0996 4.98132 13.1849 5.03946 13.2568 5.11137C13.3312 5.18577 13.3934 5.27482 13.4427 5.38268C13.4828 5.47034 13.5029 5.56554 13.5002 5.675Z" fill="#C2C2C2" stroke="#5C5C5C"/>
</g>
<defs>
<clipPath id="clip0_1870_570">
<rect width="14" height="14" fill="white"/>
</clipPath>
</defs>
</svg>
