<svg width="694" height="329" viewBox="0 0 694 329" fill="none" xmlns="http://www.w3.org/2000/svg">
<rect width="694" height="329" rx="20" fill="#066E52"/>
<rect x="12" y="11" width="670" height="293" rx="15" fill="white"/>
<path d="M34 210H660" stroke="#066E52" stroke-width="10" stroke-linecap="round"/>
<line x1="37.5" y1="255.5" x2="100.5" y2="255.5" stroke="#066E52" stroke-width="7" stroke-linecap="round"/>
<line x1="593.5" y1="255.5" x2="656.5" y2="255.5" stroke="#066E52" stroke-width="7" stroke-linecap="round"/>
<mask id="path-6-outside-1_18_91" maskUnits="userSpaceOnUse" x="63.4165" y="41" width="574" height="147" fill="black">
<rect fill="white" x="63.4165" y="41" width="574" height="147"/>
<path d="M506.403 174.235H505.188C501.541 174.235 498.604 172.099 496.376 167.827C495.971 166.911 495.768 165.996 495.768 165.08C495.768 163.961 496.072 162.842 496.68 161.723C497.895 160.096 499.617 159.282 501.845 159.282C502.858 159.282 504.023 159.435 505.34 159.74C505.947 159.943 506.707 160.045 507.618 160.045C514 160.045 519.469 159.384 524.027 158.061L554.565 152.416C556.591 150.178 558.515 147.127 560.338 143.261C562.465 138.175 563.529 133.801 563.529 130.139L544.841 134.259C543.119 135.276 541.347 135.836 539.524 135.937C532.535 135.937 528.889 133.598 528.585 128.919V125.257C528.686 124.545 528.737 120.883 528.737 114.271C528.737 105.625 527.926 102.505 526.306 96.91L526.154 95.8419C526.154 93.8075 528.078 92.7903 531.927 92.7903C533.953 92.7903 535.675 92.9938 537.093 93.4007C539 93.9478 541.904 94.5375 542.107 98.708C545.044 97.996 547.931 97.3857 550.767 96.8771C558.87 95.2495 568.694 92.6048 580.241 88.9429C580.545 86.8068 580.697 83.0432 580.697 77.652C580.697 75.9228 580.646 74.6513 580.545 73.8375V72.9221L578.874 71.5488C578.367 71.854 573.86 72.7695 565.352 74.2953C543.271 78.4658 531.573 80.551 530.256 80.551C526.306 80.3476 523.672 79.5847 522.356 78.2623C521.14 76.8383 520.533 75.8211 520.533 75.2108C520.533 72.6678 523.115 70.9385 528.281 70.023C534.257 69.311 542.157 68.0395 551.982 66.2086C561.908 64.3776 569.758 62.5466 575.531 60.7157C579.38 58.5796 582.723 57.4607 585.559 57.3589L586.166 57.5115C590.319 57.5115 593.104 59.139 594.522 62.3941C594.522 62.9027 594.573 63.3604 594.674 63.7673C594.573 64.3776 594.32 72.9221 593.915 89.4007L594.067 91.5368C594.067 93.4694 592.851 95.097 590.42 96.4193C589.407 97.5382 583.381 99.4709 572.341 102.217C566.871 103.438 556.894 106.337 542.41 110.914L544.082 124.036C546.614 123.426 548.842 122.968 550.767 122.663C552.792 122.256 566.669 118.899 592.395 112.593C594.421 111.982 596.649 111.169 599.08 110.151C600.498 109.541 601.916 109.185 603.334 109.083C606.272 109.083 607.74 110.151 607.74 112.288C607.74 113.101 607.436 114.017 606.829 115.034C604.702 118.594 601.714 121.035 597.865 122.358L577.506 127.088C577.304 132.784 575.43 140.159 571.885 149.212L591.788 145.703C597.966 144.075 604.145 142.447 610.323 140.82C616.502 139.192 620.958 138.379 623.693 138.379C628.251 138.379 631.289 139.396 632.809 141.43C633.214 142.041 633.417 142.753 633.417 143.566C632.91 146.211 632.049 147.89 630.834 148.602C622.832 152.975 617.261 155.162 614.121 155.162C613.919 155.061 613.716 155.01 613.514 155.01C613.311 154.908 612.703 154.501 611.69 153.789L610.171 152.721C609.665 152.721 609.158 152.619 608.652 152.416L607.892 152.569C556.844 161.316 530.965 165.792 530.256 165.996C525.799 167.42 522.457 168.895 520.229 170.42C516.886 172.048 512.278 173.319 506.403 174.235Z"/>
<path d="M391.726 124.647C390.207 124.647 388.738 124.24 387.32 123.426C384.484 121.595 383.066 119.561 383.066 117.323C383.167 115.39 390.561 114.424 405.248 114.424C409.401 114.424 413.553 114.576 417.706 114.881L428.645 114.729C438.166 114.729 447.231 116.255 455.841 119.306C455.942 119.408 456.195 119.611 456.6 119.917C457.107 120.222 457.512 120.527 457.816 120.832C457.411 121.748 453.612 122.561 446.421 123.273C439.331 123.985 432.19 124.341 424.999 124.341C411.224 124.341 400.133 124.443 391.726 124.647Z"/>
<path d="M249.55 154.705C247.524 154.705 246.512 153.942 246.512 152.416C246.512 151.399 247.018 150.331 248.031 149.212L252.437 144.482C263.68 133.903 271.631 118.238 276.29 97.4874L279.632 84.8233L278.113 85.4336C261.097 92.3505 249.398 95.809 243.017 95.809C240.991 95.809 239.219 95.5038 237.7 94.8935C236.18 94.2832 234.914 93.4186 233.901 92.2997C232.99 91.1808 232.534 90.011 232.534 88.7903C232.534 86.2473 234.205 84.9758 237.548 84.9758C240.991 84.8741 243.979 84.6707 246.512 84.3655C257.248 82.5346 266.161 79.483 273.251 75.2108C275.378 74.0918 277.556 73.0746 279.784 72.1592C282.114 70.5316 284.595 69.7179 287.229 69.7179C290.47 69.7179 292.901 70.6842 294.521 72.6169C295.534 73.7358 296.041 75.0073 296.041 76.4314C296.041 78.0589 295.788 79.6356 295.281 81.1614C293.964 84.8233 292.901 88.4852 292.091 92.1471C289.356 103.336 285.406 114.322 280.24 125.104C275.378 135.276 268.035 143.821 258.21 150.738C254.564 153.382 251.677 154.705 249.55 154.705ZM322.021 184C320.907 184 320.046 183.237 319.438 181.711C318.526 178.456 318.071 175.15 318.071 171.794C318.071 168.945 318.425 166.148 319.134 163.402L319.286 160.198L319.134 157.146L319.286 138.531L318.982 66.3611C318.881 64.225 318.374 62.1906 317.463 60.258C316.653 58.2236 316.247 56.1383 316.247 54.0022C316.247 49.9334 317.969 47.1361 321.413 45.6103C322.527 45.2034 323.591 45 324.604 45C326.731 45 328.503 45.9663 329.921 47.899C331.44 49.73 332.2 51.9169 332.2 54.4599C331.694 60.3597 331.44 64.7336 331.44 67.5818L331.896 99.6235L331.289 160.35C331.289 165.029 329.516 171.082 325.971 178.507C325.262 179.728 324.604 180.948 323.996 182.169C323.489 183.39 322.831 184 322.021 184Z"/>
<path d="M157.055 132.733C155.131 132.733 154.169 131.614 154.169 129.377C154.169 127.647 154.523 125.206 155.232 122.053C156.042 118.798 156.498 114.831 156.599 110.151C157.612 88.8921 158.119 77.0926 158.119 74.753C154.27 75.5668 152.143 76.0245 151.738 76.1262C151.434 76.228 151.029 76.2788 150.522 76.2788C140.292 78.5167 128.695 80.7036 115.73 82.8397C115.325 83.0432 115.072 83.1449 114.971 83.1449C114.971 83.1449 114.869 83.1449 114.667 83.1449C109.197 84.9759 103.677 85.9422 98.1064 86.0439C95.6755 85.9422 93.5485 85.0776 91.7253 83.4501C90.0034 81.7208 88.9906 79.5339 88.6867 76.8891C88.6867 75.2616 89.2944 73.7867 90.5099 72.4643C91.3202 71.6506 92.2317 71.2437 93.2446 71.2437L94.3081 71.3963C97.2454 72.6169 100.233 73.2272 103.272 73.2272C103.677 73.2272 115.933 71.2946 140.039 67.4292C140.545 67.2258 141.204 67.0732 142.014 66.9715C144.546 66.4629 146.673 65.9034 148.395 65.2931C150.117 64.6828 151.89 64.225 153.713 63.9199C156.751 62.2924 160.246 61.326 164.196 61.0209C166.12 61.0209 167.69 61.4277 168.906 62.2415C170.931 63.4621 171.944 65.4965 171.944 68.3447C171.742 71.2946 171.286 83.6026 170.577 105.269C169.767 109.541 168.906 113.407 167.994 116.865L162.069 129.224C160.853 131.258 159.182 132.428 157.055 132.733ZM78.0516 174.235H76.8362C73.1898 174.235 70.2525 172.099 68.0242 167.827C67.6191 166.911 67.4165 165.996 67.4165 165.08C67.4165 163.961 67.771 162.842 68.48 161.723C69.5942 160.096 71.2654 159.231 73.4937 159.13C75.4181 159.333 77.3426 159.638 79.267 160.045C85.6481 159.943 91.1176 159.231 95.6755 157.909L116.642 154.094C117.452 150.636 117.959 137.819 118.161 115.644C118.06 113.813 117.503 112.237 116.49 110.914C115.519 109.939 114.667 107.768 114.667 106.438C114.667 103.183 115.477 100.64 117.098 98.809C118.414 97.2832 119.934 96.5203 121.656 96.5203C123.276 96.5203 124.745 97.0289 126.061 98.0461C129.303 100.589 130.5 104.5 130.923 109.49C131.328 113.66 131.531 116.407 131.531 123.731C131.531 128.41 131.278 133.038 130.771 137.616L130.316 151.653L163.436 145.55L186.378 139.599C189.619 138.786 192.607 138.379 195.342 138.379C201.824 138.379 205.065 140.057 205.065 143.414C204.862 145.957 204.002 147.686 202.482 148.602C194.683 152.874 189.062 155.01 185.618 155.01C185.112 155.01 184.048 154.4 182.427 153.179C181.921 152.772 181.009 152.518 179.693 152.416L101.905 165.843C97.2454 167.572 93.903 168.996 91.8772 170.115C88.3322 171.946 83.7237 173.319 78.0516 174.235Z"/>
</mask>
<path d="M506.403 174.235H505.188C501.541 174.235 498.604 172.099 496.376 167.827C495.971 166.911 495.768 165.996 495.768 165.08C495.768 163.961 496.072 162.842 496.68 161.723C497.895 160.096 499.617 159.282 501.845 159.282C502.858 159.282 504.023 159.435 505.34 159.74C505.947 159.943 506.707 160.045 507.618 160.045C514 160.045 519.469 159.384 524.027 158.061L554.565 152.416C556.591 150.178 558.515 147.127 560.338 143.261C562.465 138.175 563.529 133.801 563.529 130.139L544.841 134.259C543.119 135.276 541.347 135.836 539.524 135.937C532.535 135.937 528.889 133.598 528.585 128.919V125.257C528.686 124.545 528.737 120.883 528.737 114.271C528.737 105.625 527.926 102.505 526.306 96.91L526.154 95.8419C526.154 93.8075 528.078 92.7903 531.927 92.7903C533.953 92.7903 535.675 92.9938 537.093 93.4007C539 93.9478 541.904 94.5375 542.107 98.708C545.044 97.996 547.931 97.3857 550.767 96.8771C558.87 95.2495 568.694 92.6048 580.241 88.9429C580.545 86.8068 580.697 83.0432 580.697 77.652C580.697 75.9228 580.646 74.6513 580.545 73.8375V72.9221L578.874 71.5488C578.367 71.854 573.86 72.7695 565.352 74.2953C543.271 78.4658 531.573 80.551 530.256 80.551C526.306 80.3476 523.672 79.5847 522.356 78.2623C521.14 76.8383 520.533 75.8211 520.533 75.2108C520.533 72.6678 523.115 70.9385 528.281 70.023C534.257 69.311 542.157 68.0395 551.982 66.2086C561.908 64.3776 569.758 62.5466 575.531 60.7157C579.38 58.5796 582.723 57.4607 585.559 57.3589L586.166 57.5115C590.319 57.5115 593.104 59.139 594.522 62.3941C594.522 62.9027 594.573 63.3604 594.674 63.7673C594.573 64.3776 594.32 72.9221 593.915 89.4007L594.067 91.5368C594.067 93.4694 592.851 95.097 590.42 96.4193C589.407 97.5382 583.381 99.4709 572.341 102.217C566.871 103.438 556.894 106.337 542.41 110.914L544.082 124.036C546.614 123.426 548.842 122.968 550.767 122.663C552.792 122.256 566.669 118.899 592.395 112.593C594.421 111.982 596.649 111.169 599.08 110.151C600.498 109.541 601.916 109.185 603.334 109.083C606.272 109.083 607.74 110.151 607.74 112.288C607.74 113.101 607.436 114.017 606.829 115.034C604.702 118.594 601.714 121.035 597.865 122.358L577.506 127.088C577.304 132.784 575.43 140.159 571.885 149.212L591.788 145.703C597.966 144.075 604.145 142.447 610.323 140.82C616.502 139.192 620.958 138.379 623.693 138.379C628.251 138.379 631.289 139.396 632.809 141.43C633.214 142.041 633.417 142.753 633.417 143.566C632.91 146.211 632.049 147.89 630.834 148.602C622.832 152.975 617.261 155.162 614.121 155.162C613.919 155.061 613.716 155.01 613.514 155.01C613.311 154.908 612.703 154.501 611.69 153.789L610.171 152.721C609.665 152.721 609.158 152.619 608.652 152.416L607.892 152.569C556.844 161.316 530.965 165.792 530.256 165.996C525.799 167.42 522.457 168.895 520.229 170.42C516.886 172.048 512.278 173.319 506.403 174.235Z" fill="#D60117"/>
<path d="M391.726 124.647C390.207 124.647 388.738 124.24 387.32 123.426C384.484 121.595 383.066 119.561 383.066 117.323C383.167 115.39 390.561 114.424 405.248 114.424C409.401 114.424 413.553 114.576 417.706 114.881L428.645 114.729C438.166 114.729 447.231 116.255 455.841 119.306C455.942 119.408 456.195 119.611 456.6 119.917C457.107 120.222 457.512 120.527 457.816 120.832C457.411 121.748 453.612 122.561 446.421 123.273C439.331 123.985 432.19 124.341 424.999 124.341C411.224 124.341 400.133 124.443 391.726 124.647Z" fill="#D60117"/>
<path d="M249.55 154.705C247.524 154.705 246.512 153.942 246.512 152.416C246.512 151.399 247.018 150.331 248.031 149.212L252.437 144.482C263.68 133.903 271.631 118.238 276.29 97.4874L279.632 84.8233L278.113 85.4336C261.097 92.3505 249.398 95.809 243.017 95.809C240.991 95.809 239.219 95.5038 237.7 94.8935C236.18 94.2832 234.914 93.4186 233.901 92.2997C232.99 91.1808 232.534 90.011 232.534 88.7903C232.534 86.2473 234.205 84.9758 237.548 84.9758C240.991 84.8741 243.979 84.6707 246.512 84.3655C257.248 82.5346 266.161 79.483 273.251 75.2108C275.378 74.0918 277.556 73.0746 279.784 72.1592C282.114 70.5316 284.595 69.7179 287.229 69.7179C290.47 69.7179 292.901 70.6842 294.521 72.6169C295.534 73.7358 296.041 75.0073 296.041 76.4314C296.041 78.0589 295.788 79.6356 295.281 81.1614C293.964 84.8233 292.901 88.4852 292.091 92.1471C289.356 103.336 285.406 114.322 280.24 125.104C275.378 135.276 268.035 143.821 258.21 150.738C254.564 153.382 251.677 154.705 249.55 154.705ZM322.021 184C320.907 184 320.046 183.237 319.438 181.711C318.526 178.456 318.071 175.15 318.071 171.794C318.071 168.945 318.425 166.148 319.134 163.402L319.286 160.198L319.134 157.146L319.286 138.531L318.982 66.3611C318.881 64.225 318.374 62.1906 317.463 60.258C316.653 58.2236 316.247 56.1383 316.247 54.0022C316.247 49.9334 317.969 47.1361 321.413 45.6103C322.527 45.2034 323.591 45 324.604 45C326.731 45 328.503 45.9663 329.921 47.899C331.44 49.73 332.2 51.9169 332.2 54.4599C331.694 60.3597 331.44 64.7336 331.44 67.5818L331.896 99.6235L331.289 160.35C331.289 165.029 329.516 171.082 325.971 178.507C325.262 179.728 324.604 180.948 323.996 182.169C323.489 183.39 322.831 184 322.021 184Z" fill="#D60117"/>
<path d="M157.055 132.733C155.131 132.733 154.169 131.614 154.169 129.377C154.169 127.647 154.523 125.206 155.232 122.053C156.042 118.798 156.498 114.831 156.599 110.151C157.612 88.8921 158.119 77.0926 158.119 74.753C154.27 75.5668 152.143 76.0245 151.738 76.1262C151.434 76.228 151.029 76.2788 150.522 76.2788C140.292 78.5167 128.695 80.7036 115.73 82.8397C115.325 83.0432 115.072 83.1449 114.971 83.1449C114.971 83.1449 114.869 83.1449 114.667 83.1449C109.197 84.9759 103.677 85.9422 98.1064 86.0439C95.6755 85.9422 93.5485 85.0776 91.7253 83.4501C90.0034 81.7208 88.9906 79.5339 88.6867 76.8891C88.6867 75.2616 89.2944 73.7867 90.5099 72.4643C91.3202 71.6506 92.2317 71.2437 93.2446 71.2437L94.3081 71.3963C97.2454 72.6169 100.233 73.2272 103.272 73.2272C103.677 73.2272 115.933 71.2946 140.039 67.4292C140.545 67.2258 141.204 67.0732 142.014 66.9715C144.546 66.4629 146.673 65.9034 148.395 65.2931C150.117 64.6828 151.89 64.225 153.713 63.9199C156.751 62.2924 160.246 61.326 164.196 61.0209C166.12 61.0209 167.69 61.4277 168.906 62.2415C170.931 63.4621 171.944 65.4965 171.944 68.3447C171.742 71.2946 171.286 83.6026 170.577 105.269C169.767 109.541 168.906 113.407 167.994 116.865L162.069 129.224C160.853 131.258 159.182 132.428 157.055 132.733ZM78.0516 174.235H76.8362C73.1898 174.235 70.2525 172.099 68.0242 167.827C67.6191 166.911 67.4165 165.996 67.4165 165.08C67.4165 163.961 67.771 162.842 68.48 161.723C69.5942 160.096 71.2654 159.231 73.4937 159.13C75.4181 159.333 77.3426 159.638 79.267 160.045C85.6481 159.943 91.1176 159.231 95.6755 157.909L116.642 154.094C117.452 150.636 117.959 137.819 118.161 115.644C118.06 113.813 117.503 112.237 116.49 110.914C115.519 109.939 114.667 107.768 114.667 106.438C114.667 103.183 115.477 100.64 117.098 98.809C118.414 97.2832 119.934 96.5203 121.656 96.5203C123.276 96.5203 124.745 97.0289 126.061 98.0461C129.303 100.589 130.5 104.5 130.923 109.49C131.328 113.66 131.531 116.407 131.531 123.731C131.531 128.41 131.278 133.038 130.771 137.616L130.316 151.653L163.436 145.55L186.378 139.599C189.619 138.786 192.607 138.379 195.342 138.379C201.824 138.379 205.065 140.057 205.065 143.414C204.862 145.957 204.002 147.686 202.482 148.602C194.683 152.874 189.062 155.01 185.618 155.01C185.112 155.01 184.048 154.4 182.427 153.179C181.921 152.772 181.009 152.518 179.693 152.416L101.905 165.843C97.2454 167.572 93.903 168.996 91.8772 170.115C88.3322 171.946 83.7237 173.319 78.0516 174.235Z" fill="#D60117"/>
<path d="M506.403 174.235H505.188C501.541 174.235 498.604 172.099 496.376 167.827C495.971 166.911 495.768 165.996 495.768 165.08C495.768 163.961 496.072 162.842 496.68 161.723C497.895 160.096 499.617 159.282 501.845 159.282C502.858 159.282 504.023 159.435 505.34 159.74C505.947 159.943 506.707 160.045 507.618 160.045C514 160.045 519.469 159.384 524.027 158.061L554.565 152.416C556.591 150.178 558.515 147.127 560.338 143.261C562.465 138.175 563.529 133.801 563.529 130.139L544.841 134.259C543.119 135.276 541.347 135.836 539.524 135.937C532.535 135.937 528.889 133.598 528.585 128.919V125.257C528.686 124.545 528.737 120.883 528.737 114.271C528.737 105.625 527.926 102.505 526.306 96.91L526.154 95.8419C526.154 93.8075 528.078 92.7903 531.927 92.7903C533.953 92.7903 535.675 92.9938 537.093 93.4007C539 93.9478 541.904 94.5375 542.107 98.708C545.044 97.996 547.931 97.3857 550.767 96.8771C558.87 95.2495 568.694 92.6048 580.241 88.9429C580.545 86.8068 580.697 83.0432 580.697 77.652C580.697 75.9228 580.646 74.6513 580.545 73.8375V72.9221L578.874 71.5488C578.367 71.854 573.86 72.7695 565.352 74.2953C543.271 78.4658 531.573 80.551 530.256 80.551C526.306 80.3476 523.672 79.5847 522.356 78.2623C521.14 76.8383 520.533 75.8211 520.533 75.2108C520.533 72.6678 523.115 70.9385 528.281 70.023C534.257 69.311 542.157 68.0395 551.982 66.2086C561.908 64.3776 569.758 62.5466 575.531 60.7157C579.38 58.5796 582.723 57.4607 585.559 57.3589L586.166 57.5115C590.319 57.5115 593.104 59.139 594.522 62.3941C594.522 62.9027 594.573 63.3604 594.674 63.7673C594.573 64.3776 594.32 72.9221 593.915 89.4007L594.067 91.5368C594.067 93.4694 592.851 95.097 590.42 96.4193C589.407 97.5382 583.381 99.4709 572.341 102.217C566.871 103.438 556.894 106.337 542.41 110.914L544.082 124.036C546.614 123.426 548.842 122.968 550.767 122.663C552.792 122.256 566.669 118.899 592.395 112.593C594.421 111.982 596.649 111.169 599.08 110.151C600.498 109.541 601.916 109.185 603.334 109.083C606.272 109.083 607.74 110.151 607.74 112.288C607.74 113.101 607.436 114.017 606.829 115.034C604.702 118.594 601.714 121.035 597.865 122.358L577.506 127.088C577.304 132.784 575.43 140.159 571.885 149.212L591.788 145.703C597.966 144.075 604.145 142.447 610.323 140.82C616.502 139.192 620.958 138.379 623.693 138.379C628.251 138.379 631.289 139.396 632.809 141.43C633.214 142.041 633.417 142.753 633.417 143.566C632.91 146.211 632.049 147.89 630.834 148.602C622.832 152.975 617.261 155.162 614.121 155.162C613.919 155.061 613.716 155.01 613.514 155.01C613.311 154.908 612.703 154.501 611.69 153.789L610.171 152.721C609.665 152.721 609.158 152.619 608.652 152.416L607.892 152.569C556.844 161.316 530.965 165.792 530.256 165.996C525.799 167.42 522.457 168.895 520.229 170.42C516.886 172.048 512.278 173.319 506.403 174.235Z" stroke="#D60117" stroke-width="8" stroke-linejoin="round" mask="url(#path-6-outside-1_18_91)"/>
<path d="M391.726 124.647C390.207 124.647 388.738 124.24 387.32 123.426C384.484 121.595 383.066 119.561 383.066 117.323C383.167 115.39 390.561 114.424 405.248 114.424C409.401 114.424 413.553 114.576 417.706 114.881L428.645 114.729C438.166 114.729 447.231 116.255 455.841 119.306C455.942 119.408 456.195 119.611 456.6 119.917C457.107 120.222 457.512 120.527 457.816 120.832C457.411 121.748 453.612 122.561 446.421 123.273C439.331 123.985 432.19 124.341 424.999 124.341C411.224 124.341 400.133 124.443 391.726 124.647Z" stroke="#D60117" stroke-width="8" stroke-linejoin="round" mask="url(#path-6-outside-1_18_91)"/>
<path d="M249.55 154.705C247.524 154.705 246.512 153.942 246.512 152.416C246.512 151.399 247.018 150.331 248.031 149.212L252.437 144.482C263.68 133.903 271.631 118.238 276.29 97.4874L279.632 84.8233L278.113 85.4336C261.097 92.3505 249.398 95.809 243.017 95.809C240.991 95.809 239.219 95.5038 237.7 94.8935C236.18 94.2832 234.914 93.4186 233.901 92.2997C232.99 91.1808 232.534 90.011 232.534 88.7903C232.534 86.2473 234.205 84.9758 237.548 84.9758C240.991 84.8741 243.979 84.6707 246.512 84.3655C257.248 82.5346 266.161 79.483 273.251 75.2108C275.378 74.0918 277.556 73.0746 279.784 72.1592C282.114 70.5316 284.595 69.7179 287.229 69.7179C290.47 69.7179 292.901 70.6842 294.521 72.6169C295.534 73.7358 296.041 75.0073 296.041 76.4314C296.041 78.0589 295.788 79.6356 295.281 81.1614C293.964 84.8233 292.901 88.4852 292.091 92.1471C289.356 103.336 285.406 114.322 280.24 125.104C275.378 135.276 268.035 143.821 258.21 150.738C254.564 153.382 251.677 154.705 249.55 154.705ZM322.021 184C320.907 184 320.046 183.237 319.438 181.711C318.526 178.456 318.071 175.15 318.071 171.794C318.071 168.945 318.425 166.148 319.134 163.402L319.286 160.198L319.134 157.146L319.286 138.531L318.982 66.3611C318.881 64.225 318.374 62.1906 317.463 60.258C316.653 58.2236 316.247 56.1383 316.247 54.0022C316.247 49.9334 317.969 47.1361 321.413 45.6103C322.527 45.2034 323.591 45 324.604 45C326.731 45 328.503 45.9663 329.921 47.899C331.44 49.73 332.2 51.9169 332.2 54.4599C331.694 60.3597 331.44 64.7336 331.44 67.5818L331.896 99.6235L331.289 160.35C331.289 165.029 329.516 171.082 325.971 178.507C325.262 179.728 324.604 180.948 323.996 182.169C323.489 183.39 322.831 184 322.021 184Z" stroke="#D60117" stroke-width="8" stroke-linejoin="round" mask="url(#path-6-outside-1_18_91)"/>
<path d="M157.055 132.733C155.131 132.733 154.169 131.614 154.169 129.377C154.169 127.647 154.523 125.206 155.232 122.053C156.042 118.798 156.498 114.831 156.599 110.151C157.612 88.8921 158.119 77.0926 158.119 74.753C154.27 75.5668 152.143 76.0245 151.738 76.1262C151.434 76.228 151.029 76.2788 150.522 76.2788C140.292 78.5167 128.695 80.7036 115.73 82.8397C115.325 83.0432 115.072 83.1449 114.971 83.1449C114.971 83.1449 114.869 83.1449 114.667 83.1449C109.197 84.9759 103.677 85.9422 98.1064 86.0439C95.6755 85.9422 93.5485 85.0776 91.7253 83.4501C90.0034 81.7208 88.9906 79.5339 88.6867 76.8891C88.6867 75.2616 89.2944 73.7867 90.5099 72.4643C91.3202 71.6506 92.2317 71.2437 93.2446 71.2437L94.3081 71.3963C97.2454 72.6169 100.233 73.2272 103.272 73.2272C103.677 73.2272 115.933 71.2946 140.039 67.4292C140.545 67.2258 141.204 67.0732 142.014 66.9715C144.546 66.4629 146.673 65.9034 148.395 65.2931C150.117 64.6828 151.89 64.225 153.713 63.9199C156.751 62.2924 160.246 61.326 164.196 61.0209C166.12 61.0209 167.69 61.4277 168.906 62.2415C170.931 63.4621 171.944 65.4965 171.944 68.3447C171.742 71.2946 171.286 83.6026 170.577 105.269C169.767 109.541 168.906 113.407 167.994 116.865L162.069 129.224C160.853 131.258 159.182 132.428 157.055 132.733ZM78.0516 174.235H76.8362C73.1898 174.235 70.2525 172.099 68.0242 167.827C67.6191 166.911 67.4165 165.996 67.4165 165.08C67.4165 163.961 67.771 162.842 68.48 161.723C69.5942 160.096 71.2654 159.231 73.4937 159.13C75.4181 159.333 77.3426 159.638 79.267 160.045C85.6481 159.943 91.1176 159.231 95.6755 157.909L116.642 154.094C117.452 150.636 117.959 137.819 118.161 115.644C118.06 113.813 117.503 112.237 116.49 110.914C115.519 109.939 114.667 107.768 114.667 106.438C114.667 103.183 115.477 100.64 117.098 98.809C118.414 97.2832 119.934 96.5203 121.656 96.5203C123.276 96.5203 124.745 97.0289 126.061 98.0461C129.303 100.589 130.5 104.5 130.923 109.49C131.328 113.66 131.531 116.407 131.531 123.731C131.531 128.41 131.278 133.038 130.771 137.616L130.316 151.653L163.436 145.55L186.378 139.599C189.619 138.786 192.607 138.379 195.342 138.379C201.824 138.379 205.065 140.057 205.065 143.414C204.862 145.957 204.002 147.686 202.482 148.602C194.683 152.874 189.062 155.01 185.618 155.01C185.112 155.01 184.048 154.4 182.427 153.179C181.921 152.772 181.009 152.518 179.693 152.416L101.905 165.843C97.2454 167.572 93.903 168.996 91.8772 170.115C88.3322 171.946 83.7237 173.319 78.0516 174.235Z" stroke="#D60117" stroke-width="8" stroke-linejoin="round" mask="url(#path-6-outside-1_18_91)"/>
<mask id="path-7-outside-2_18_91" maskUnits="userSpaceOnUse" x="130" y="237" width="433" height="45" fill="black">
<rect fill="white" x="130" y="237" width="433" height="45"/>
<path d="M131 250.945C131 249.422 131.241 248.003 131.722 246.69C132.203 245.376 132.895 244.241 133.798 243.285C134.7 242.3 135.784 241.539 137.047 241.001C138.341 240.434 139.785 240.15 141.379 240.15C142.974 240.15 144.403 240.434 145.667 241.001C146.96 241.539 148.058 242.3 148.961 243.285C149.863 244.241 150.555 245.376 151.037 246.69C151.518 248.003 151.759 249.422 151.759 250.945C151.759 252.468 151.518 253.886 151.037 255.2C150.555 256.514 149.863 257.664 148.961 258.649C148.058 259.605 146.96 260.366 145.667 260.933C144.403 261.471 142.974 261.74 141.379 261.74C139.785 261.74 138.341 261.471 137.047 260.933C135.784 260.366 134.7 259.605 133.798 258.649C132.895 257.664 132.203 256.514 131.722 255.2C131.241 253.886 131 252.468 131 250.945ZM136.731 250.945C136.731 253.184 137.137 254.946 137.95 256.23C138.762 257.484 139.905 258.111 141.379 258.111C142.854 258.111 143.997 257.484 144.809 256.23C145.621 254.946 146.028 253.184 146.028 250.945C146.028 248.705 145.621 246.958 144.809 245.704C143.997 244.42 142.854 243.778 141.379 243.778C139.905 243.778 138.762 244.42 137.95 245.704C137.137 246.958 136.731 248.705 136.731 250.945ZM156.768 238.358L156.903 238C158.197 238.06 159.476 238.194 160.739 238.403C162.003 238.612 163.266 238.911 164.53 239.299C163.868 239.448 163.462 239.777 163.311 240.284C163.161 240.792 163.086 241.33 163.086 241.897V268.1C161.221 268.787 159.295 269.384 157.31 269.892V241.359C157.31 240.822 157.279 240.314 157.219 239.836C157.159 239.329 157.009 238.836 156.768 238.358ZM137.363 266.756L137.498 266.398C138.852 266.458 140.146 266.607 141.379 266.846C142.613 267.055 143.831 267.339 145.035 267.697C144.493 267.816 144.117 268.085 143.907 268.503C143.696 268.891 143.591 269.489 143.591 270.295V276.297C145.606 276.297 147.592 276.282 149.548 276.252C151.533 276.222 153.654 276.148 155.911 276.028C157.535 275.939 159.069 275.774 160.514 275.535C161.958 275.297 163.221 274.998 164.304 274.64C164.184 275.685 164.034 276.566 163.853 277.282C163.703 277.999 163.492 278.82 163.221 279.746H137.905V269.757C137.905 269.041 137.859 268.473 137.769 268.055C137.709 267.607 137.574 267.174 137.363 266.756Z"/>
<path d="M183.185 272.4C183.185 271.086 183.486 269.907 184.088 268.861C184.69 267.786 185.547 266.876 186.66 266.129C187.803 265.383 189.157 264.815 190.722 264.427C192.286 264.009 194.046 263.8 196.002 263.8C197.927 263.8 199.672 264.009 201.236 264.427C202.831 264.815 204.185 265.383 205.298 266.129C206.441 266.876 207.314 267.786 207.915 268.861C208.517 269.907 208.818 271.086 208.818 272.4C208.818 273.714 208.517 274.893 207.915 275.939C207.314 277.014 206.441 277.924 205.298 278.671C204.185 279.417 202.831 279.985 201.236 280.373C199.672 280.791 197.927 281 196.002 281C194.046 281 192.286 280.791 190.722 280.373C189.157 279.985 187.803 279.417 186.66 278.671C185.547 277.924 184.69 277.014 184.088 275.939C183.486 274.893 183.185 273.714 183.185 272.4ZM194.422 239.075L194.558 238.717C195.611 238.776 196.754 238.926 197.987 239.165C199.221 239.374 200.379 239.687 201.462 240.105C200.951 240.225 200.605 240.478 200.424 240.867C200.274 241.255 200.199 241.867 200.199 242.703V248.078H204.125V241.359C204.125 240.643 204.08 240.075 203.989 239.657C203.929 239.209 203.794 238.776 203.583 238.358L203.718 238C204.741 238.06 205.87 238.209 207.103 238.448C208.337 238.657 209.555 238.941 210.758 239.299C210.247 239.418 209.886 239.672 209.675 240.06C209.495 240.449 209.405 241.061 209.405 241.897V261.605C207.961 262.143 206.201 262.68 204.125 263.218V251.751H200.199V260.306C199.416 260.605 198.589 260.889 197.717 261.157C196.844 261.426 195.926 261.68 194.964 261.919V242.076C194.964 241.359 194.919 240.792 194.828 240.374C194.768 239.926 194.633 239.493 194.422 239.075ZM188.059 256.813C187.066 255.618 185.953 254.498 184.72 253.453C184.028 254.618 183.2 255.693 182.238 256.678C181.666 257.275 181.109 257.813 180.568 258.291C180.026 258.768 179.455 259.216 178.853 259.634C178.281 260.052 177.65 260.47 176.958 260.889C176.296 261.307 175.544 261.74 174.701 262.188L173.663 260.933C174.957 259.619 176.01 258.455 176.822 257.44C177.635 256.424 178.357 255.334 178.988 254.17C179.38 253.483 179.695 252.826 179.936 252.199C180.207 251.542 180.433 250.87 180.613 250.183C180.794 249.467 180.929 248.705 181.019 247.899C181.109 247.063 181.185 246.122 181.245 245.077L181.29 243.957C181.32 243.241 181.29 242.658 181.2 242.21C181.109 241.733 180.959 241.285 180.748 240.867L180.884 240.508C182.147 240.568 183.396 240.702 184.629 240.911C185.893 241.12 187.142 241.389 188.375 241.718C187.864 241.837 187.503 242.091 187.292 242.479C187.081 242.867 186.961 243.48 186.931 244.316C186.901 244.973 186.856 245.615 186.796 246.242C186.765 246.839 186.675 247.57 186.525 248.436C186.465 248.825 186.389 249.198 186.299 249.556C186.239 249.885 186.149 250.213 186.028 250.542L189.594 252.916C190.406 253.453 191.053 253.856 191.534 254.125C192.015 254.394 192.557 254.618 193.159 254.797C192.497 256.738 191.369 258.485 189.774 260.038C189.594 259.381 189.368 258.813 189.097 258.335C188.826 257.828 188.48 257.32 188.059 256.813ZM188.646 272.4C188.646 274.013 189.308 275.282 190.631 276.207C191.985 277.133 193.775 277.596 196.002 277.596C198.228 277.596 200.003 277.133 201.327 276.207C202.681 275.282 203.357 274.013 203.357 272.4C203.357 270.788 202.681 269.518 201.327 268.593C200.003 267.667 198.228 267.204 196.002 267.204C193.775 267.204 191.985 267.667 190.631 268.593C189.308 269.518 188.646 270.788 188.646 272.4Z"/>
<path d="M238.214 238.717C239.808 238.717 241.328 238.911 242.772 239.299C244.246 239.657 245.54 240.21 246.653 240.956C247.796 241.673 248.698 242.569 249.36 243.644C250.052 244.719 250.398 245.973 250.398 247.406C250.398 248.84 250.052 250.094 249.36 251.169C248.698 252.244 247.796 253.155 246.653 253.901C245.54 254.618 244.246 255.17 242.772 255.558C241.328 255.917 239.808 256.096 238.214 256.096C236.619 256.096 235.085 255.917 233.611 255.558C232.167 255.17 230.873 254.618 229.73 253.901C228.617 253.155 227.714 252.244 227.022 251.169C226.36 250.094 226.029 248.84 226.029 247.406C226.029 245.973 226.36 244.719 227.022 243.644C227.714 242.569 228.617 241.673 229.73 240.956C230.873 240.21 232.167 239.657 233.611 239.299C235.085 238.911 236.619 238.717 238.214 238.717ZM238.214 242.3C236.228 242.3 234.664 242.778 233.52 243.733C232.407 244.689 231.851 245.913 231.851 247.406C231.851 248.899 232.407 250.124 233.52 251.079C234.664 252.035 236.228 252.513 238.214 252.513C240.199 252.513 241.749 252.035 242.862 251.079C244.005 250.124 244.577 248.899 244.577 247.406C244.577 245.913 244.005 244.689 242.862 243.733C241.749 242.778 240.199 242.3 238.214 242.3ZM231.309 276.207C236.243 276.207 240.5 276.118 244.08 275.939C245.555 275.849 247.059 275.67 248.593 275.401C250.127 275.162 251.421 274.864 252.474 274.505C252.384 275.55 252.264 276.446 252.113 277.193C251.993 277.939 251.797 278.775 251.526 279.701H225.578V269.847C225.578 268.264 225.352 267.115 224.901 266.398L225.036 265.995C228.135 266.144 230.692 266.592 232.708 267.339C232.167 267.458 231.791 267.712 231.58 268.1C231.399 268.488 231.309 269.115 231.309 269.981V276.207ZM218.809 258.963C219.952 259.201 221.11 259.366 222.284 259.455C223.487 259.515 224.675 259.545 225.849 259.545H250.173C251.105 259.545 252.053 259.5 253.016 259.41C253.978 259.321 254.881 259.052 255.723 258.604C256.145 259.41 256.475 260.247 256.716 261.113C256.957 261.978 257.152 262.844 257.303 263.71C255.046 263.263 252.76 263.039 250.443 263.039H226.12C225.157 263.039 224.194 263.128 223.231 263.307C222.269 263.486 221.351 263.8 220.479 264.248C220.118 263.382 219.802 262.516 219.531 261.65C219.26 260.754 219.019 259.858 218.809 258.963Z"/>
<path d="M311.824 272.624H287.5C286.538 272.624 285.575 272.714 284.612 272.893C283.649 273.072 282.732 273.385 281.859 273.833C281.468 272.967 281.137 272.086 280.867 271.191C280.626 270.295 280.4 269.384 280.19 268.458C281.333 268.697 282.491 268.861 283.664 268.951C284.868 269.011 286.056 269.041 287.23 269.041H293.006V258.111C293.006 257.514 292.961 256.917 292.871 256.32C292.78 255.723 292.54 255.17 292.149 254.663L292.284 254.259C293.668 254.259 295.082 254.394 296.526 254.663C297.97 254.931 299.324 255.349 300.587 255.917C299.835 256.066 299.369 256.38 299.188 256.857C299.038 257.335 298.963 257.902 298.963 258.559V269.041H311.553C312.486 269.041 313.434 268.996 314.397 268.906C315.359 268.817 316.262 268.548 317.104 268.1C317.495 268.936 317.811 269.787 318.052 270.653C318.323 271.519 318.533 272.4 318.684 273.296C316.427 272.848 314.141 272.624 311.824 272.624ZM292.69 242.121H303.656C304.649 242.121 305.642 242.031 306.635 241.852C307.657 241.643 308.485 241.374 309.117 241.046C309.839 241.374 310.546 241.762 311.238 242.21C311.96 242.628 312.516 243.002 312.907 243.33C312.787 247.421 312.396 251.109 311.734 254.394C311.072 257.649 310.079 260.68 308.756 263.486H305.461C305.732 261.993 305.958 260.545 306.138 259.142C306.319 257.738 306.454 256.32 306.544 254.886C306.665 253.453 306.755 251.99 306.815 250.497C306.875 249.004 306.905 247.406 306.905 245.704H292.374C291.02 245.704 289.937 245.824 289.125 246.062C288.343 246.272 287.681 246.6 287.139 247.048C286.778 246.301 286.447 245.45 286.147 244.495C285.876 243.539 285.68 242.643 285.56 241.807L285.695 241.673C286.477 241.822 287.41 241.942 288.493 242.031C289.576 242.091 290.975 242.121 292.69 242.121Z"/>
<path d="M359.903 277.954C357.978 278.969 356.052 279.85 354.127 280.597V241.359C354.127 240.822 354.097 240.314 354.036 239.836C353.976 239.329 353.826 238.836 353.585 238.358L353.72 238C355.014 238.06 356.293 238.194 357.556 238.403C358.82 238.612 360.083 238.911 361.347 239.299C360.685 239.448 360.279 239.777 360.129 240.284C359.978 240.792 359.903 241.33 359.903 241.897V277.954ZM343.928 241.762C345.312 242.36 346.56 243.121 347.673 244.047C347.613 245.122 347.433 246.227 347.132 247.361C346.861 248.466 346.485 249.616 346.004 250.81C345.342 252.423 344.484 253.976 343.431 255.469C342.408 256.962 341.22 258.395 339.866 259.769C339.084 260.575 338.257 261.366 337.384 262.143C336.542 262.889 335.639 263.651 334.677 264.427C333.714 265.174 332.661 265.935 331.518 266.711C330.404 267.458 329.171 268.234 327.817 269.041L326.373 267.652C328.539 265.86 330.389 264.188 331.924 262.635C333.458 261.053 334.842 259.425 336.075 257.753C337.52 255.782 338.678 253.901 339.55 252.109C340.453 250.318 341.115 248.377 341.536 246.286H334.406C331.698 246.286 329.803 246.734 328.72 247.63C327.998 246.077 327.501 244.375 327.23 242.524L327.366 242.39C328.87 242.688 331.352 242.837 334.812 242.837H339.686C340.919 242.837 342.333 242.479 343.928 241.762Z"/>
<path d="M399.182 238.358L399.317 238C400.611 238.06 401.889 238.194 403.153 238.403C404.417 238.612 405.68 238.911 406.944 239.299C406.282 239.448 405.876 239.777 405.725 240.284C405.575 240.792 405.5 241.33 405.5 241.897V278.089C404.537 278.507 403.574 278.925 402.611 279.343C401.679 279.791 400.716 280.209 399.723 280.597V254.08H396.158C395.135 254.08 394.278 254.14 393.586 254.259C392.894 254.349 392.277 254.498 391.736 254.707C391.495 253.961 391.299 253.229 391.149 252.513C391.029 251.796 390.908 251.005 390.788 250.139C391.871 250.288 392.849 250.377 393.721 250.407C394.624 250.407 395.466 250.407 396.248 250.407H399.723V241.359C399.723 240.822 399.693 240.314 399.633 239.836C399.573 239.329 399.422 238.836 399.182 238.358ZM381.176 244.495C381.176 244.047 381.131 243.614 381.04 243.196C380.98 242.748 380.845 242.315 380.634 241.897L380.77 241.539C382.123 241.598 383.462 241.733 384.786 241.942C386.14 242.151 387.464 242.449 388.757 242.837C388.276 242.927 387.915 243.181 387.674 243.599C387.554 243.778 387.434 244.256 387.313 245.032C387.193 245.809 387.072 246.675 386.952 247.63C386.862 248.556 386.772 249.467 386.681 250.363C386.591 251.228 386.501 251.856 386.411 252.244C386.29 252.781 386.155 253.304 386.004 253.811C385.854 254.289 385.689 254.767 385.508 255.245L391.6 258.828C392.202 259.186 392.804 259.5 393.405 259.769C394.007 260.038 394.654 260.247 395.346 260.396C394.925 261.441 394.398 262.441 393.766 263.397C393.165 264.352 392.458 265.233 391.645 266.04C391.435 265.263 391.044 264.502 390.472 263.755C389.9 263.009 389.239 262.307 388.486 261.65C387.734 260.963 386.952 260.321 386.14 259.724C385.358 259.127 384.651 258.589 384.019 258.111C382.635 260.291 380.89 262.158 378.784 263.71C376.678 265.263 374.407 266.607 371.97 267.742L370.932 266.398C373.639 264.278 375.926 261.755 377.791 258.828C378.513 257.693 379.085 256.559 379.506 255.424C379.957 254.289 380.303 253.125 380.544 251.93C380.815 250.736 380.98 249.526 381.04 248.302C381.131 247.078 381.176 245.809 381.176 244.495Z"/>
<path d="M463.496 272.624H439.172C438.209 272.624 437.247 272.714 436.284 272.893C435.321 273.072 434.404 273.385 433.531 273.833C433.14 272.967 432.809 272.086 432.538 271.191C432.298 270.295 432.072 269.384 431.861 268.458C433.005 268.697 434.163 268.861 435.336 268.951C436.54 269.011 437.728 269.041 438.901 269.041H444.678V258.111C444.678 257.514 444.633 256.917 444.542 256.32C444.452 255.723 444.211 255.17 443.82 254.663L443.956 254.259C445.339 254.259 446.754 254.394 448.198 254.663C449.642 254.931 450.996 255.349 452.259 255.917C451.507 256.066 451.041 256.38 450.86 256.857C450.71 257.335 450.634 257.902 450.634 258.559V269.041H463.225C464.158 269.041 465.105 268.996 466.068 268.906C467.031 268.817 467.933 268.548 468.776 268.1C469.167 268.936 469.483 269.787 469.724 270.653C469.994 271.519 470.205 272.4 470.355 273.296C468.099 272.848 465.812 272.624 463.496 272.624ZM444.362 242.121H455.328C456.321 242.121 457.313 242.031 458.306 241.852C459.329 241.643 460.156 241.374 460.788 241.046C461.51 241.374 462.217 241.762 462.909 242.21C463.631 242.628 464.188 243.002 464.579 243.33C464.459 247.421 464.068 251.109 463.406 254.394C462.744 257.649 461.751 260.68 460.427 263.486H457.133C457.404 261.993 457.629 260.545 457.81 259.142C457.99 257.738 458.126 256.32 458.216 254.886C458.336 253.453 458.427 251.99 458.487 250.497C458.547 249.004 458.577 247.406 458.577 245.704H444.046C442.692 245.704 441.609 245.824 440.797 246.062C440.014 246.272 439.353 246.6 438.811 247.048C438.45 246.301 438.119 245.45 437.818 244.495C437.547 243.539 437.352 242.643 437.232 241.807L437.367 241.673C438.149 241.822 439.082 241.942 440.165 242.031C441.248 242.091 442.647 242.121 444.362 242.121Z"/>
<path d="M511.575 277.954C509.649 278.969 507.724 279.85 505.798 280.597V241.359C505.798 240.822 505.768 240.314 505.708 239.836C505.648 239.329 505.497 238.836 505.257 238.358L505.392 238C506.686 238.06 507.964 238.194 509.228 238.403C510.492 238.612 511.755 238.911 513.019 239.299C512.357 239.448 511.951 239.777 511.8 240.284C511.65 240.792 511.575 241.33 511.575 241.897V277.954ZM495.599 241.762C496.983 242.36 498.232 243.121 499.345 244.047C499.285 245.122 499.104 246.227 498.803 247.361C498.533 248.466 498.157 249.616 497.675 250.81C497.013 252.423 496.156 253.976 495.103 255.469C494.08 256.962 492.892 258.395 491.538 259.769C490.756 260.575 489.928 261.366 489.056 262.143C488.214 262.889 487.311 263.651 486.348 264.427C485.385 265.174 484.333 265.935 483.189 266.711C482.076 267.458 480.843 268.234 479.489 269.041L478.045 267.652C480.211 265.86 482.061 264.188 483.595 262.635C485.13 261.053 486.514 259.425 487.747 257.753C489.191 255.782 490.35 253.901 491.222 252.109C492.125 250.318 492.786 248.377 493.208 246.286H486.077C483.37 246.286 481.474 246.734 480.391 247.63C479.669 246.077 479.173 244.375 478.902 242.524L479.038 242.39C480.542 242.688 483.024 242.837 486.484 242.837H491.357C492.591 242.837 494.005 242.479 495.599 241.762Z"/>
<path d="M549.184 238.358L549.319 238C550.613 238.06 551.891 238.194 553.155 238.403C554.419 238.612 555.682 238.911 556.946 239.299C556.284 239.448 555.878 239.777 555.727 240.284C555.577 240.792 555.502 241.33 555.502 241.897V253.184C556.585 253.184 557.653 253.155 558.706 253.095C559.789 253.005 560.887 252.841 562 252.602C561.97 253.438 561.91 254.259 561.82 255.066C561.759 255.872 561.639 256.678 561.458 257.484C560.466 257.245 559.473 257.096 558.48 257.036C557.487 256.977 556.494 256.947 555.502 256.947V278.089C554.599 278.566 553.651 279.014 552.659 279.432C551.696 279.85 550.718 280.239 549.725 280.597V241.359C549.725 240.822 549.695 240.314 549.635 239.836C549.575 239.329 549.424 238.836 549.184 238.358ZM525.221 266.756L525.176 246.914C524.905 246.048 524.664 245.316 524.454 244.719C524.273 244.122 524.108 243.39 523.957 242.524L524.048 242.39C526.244 242.569 528.44 242.658 530.636 242.658H537.135C538.488 242.658 539.587 242.614 540.429 242.524C541.301 242.434 542.084 242.27 542.776 242.031C543.137 242.808 543.422 243.554 543.633 244.271C543.874 244.958 544.084 245.674 544.265 246.421C543.783 246.361 543.332 246.316 542.911 246.286C542.49 246.257 542.054 246.227 541.602 246.197C541.151 246.167 540.64 246.152 540.068 246.152C539.526 246.152 538.88 246.152 538.127 246.152H530.907V262.008C533.615 261.859 536.262 261.68 538.849 261.471C541.437 261.232 544.099 260.948 546.837 260.62L546.205 263.845C545.483 263.964 544.791 264.084 544.129 264.203C543.468 264.293 542.776 264.397 542.054 264.517C541.362 264.636 540.594 264.756 539.752 264.875C538.94 264.994 538.007 265.114 536.954 265.233L525.221 266.756Z"/>
</mask>
<path d="M131 250.945C131 249.422 131.241 248.003 131.722 246.69C132.203 245.376 132.895 244.241 133.798 243.285C134.7 242.3 135.784 241.539 137.047 241.001C138.341 240.434 139.785 240.15 141.379 240.15C142.974 240.15 144.403 240.434 145.667 241.001C146.96 241.539 148.058 242.3 148.961 243.285C149.863 244.241 150.555 245.376 151.037 246.69C151.518 248.003 151.759 249.422 151.759 250.945C151.759 252.468 151.518 253.886 151.037 255.2C150.555 256.514 149.863 257.664 148.961 258.649C148.058 259.605 146.96 260.366 145.667 260.933C144.403 261.471 142.974 261.74 141.379 261.74C139.785 261.74 138.341 261.471 137.047 260.933C135.784 260.366 134.7 259.605 133.798 258.649C132.895 257.664 132.203 256.514 131.722 255.2C131.241 253.886 131 252.468 131 250.945ZM136.731 250.945C136.731 253.184 137.137 254.946 137.95 256.23C138.762 257.484 139.905 258.111 141.379 258.111C142.854 258.111 143.997 257.484 144.809 256.23C145.621 254.946 146.028 253.184 146.028 250.945C146.028 248.705 145.621 246.958 144.809 245.704C143.997 244.42 142.854 243.778 141.379 243.778C139.905 243.778 138.762 244.42 137.95 245.704C137.137 246.958 136.731 248.705 136.731 250.945ZM156.768 238.358L156.903 238C158.197 238.06 159.476 238.194 160.739 238.403C162.003 238.612 163.266 238.911 164.53 239.299C163.868 239.448 163.462 239.777 163.311 240.284C163.161 240.792 163.086 241.33 163.086 241.897V268.1C161.221 268.787 159.295 269.384 157.31 269.892V241.359C157.31 240.822 157.279 240.314 157.219 239.836C157.159 239.329 157.009 238.836 156.768 238.358ZM137.363 266.756L137.498 266.398C138.852 266.458 140.146 266.607 141.379 266.846C142.613 267.055 143.831 267.339 145.035 267.697C144.493 267.816 144.117 268.085 143.907 268.503C143.696 268.891 143.591 269.489 143.591 270.295V276.297C145.606 276.297 147.592 276.282 149.548 276.252C151.533 276.222 153.654 276.148 155.911 276.028C157.535 275.939 159.069 275.774 160.514 275.535C161.958 275.297 163.221 274.998 164.304 274.64C164.184 275.685 164.034 276.566 163.853 277.282C163.703 277.999 163.492 278.82 163.221 279.746H137.905V269.757C137.905 269.041 137.859 268.473 137.769 268.055C137.709 267.607 137.574 267.174 137.363 266.756Z" fill="#066E52"/>
<path d="M183.185 272.4C183.185 271.086 183.486 269.907 184.088 268.861C184.69 267.786 185.547 266.876 186.66 266.129C187.803 265.383 189.157 264.815 190.722 264.427C192.286 264.009 194.046 263.8 196.002 263.8C197.927 263.8 199.672 264.009 201.236 264.427C202.831 264.815 204.185 265.383 205.298 266.129C206.441 266.876 207.314 267.786 207.915 268.861C208.517 269.907 208.818 271.086 208.818 272.4C208.818 273.714 208.517 274.893 207.915 275.939C207.314 277.014 206.441 277.924 205.298 278.671C204.185 279.417 202.831 279.985 201.236 280.373C199.672 280.791 197.927 281 196.002 281C194.046 281 192.286 280.791 190.722 280.373C189.157 279.985 187.803 279.417 186.66 278.671C185.547 277.924 184.69 277.014 184.088 275.939C183.486 274.893 183.185 273.714 183.185 272.4ZM194.422 239.075L194.558 238.717C195.611 238.776 196.754 238.926 197.987 239.165C199.221 239.374 200.379 239.687 201.462 240.105C200.951 240.225 200.605 240.478 200.424 240.867C200.274 241.255 200.199 241.867 200.199 242.703V248.078H204.125V241.359C204.125 240.643 204.08 240.075 203.989 239.657C203.929 239.209 203.794 238.776 203.583 238.358L203.718 238C204.741 238.06 205.87 238.209 207.103 238.448C208.337 238.657 209.555 238.941 210.758 239.299C210.247 239.418 209.886 239.672 209.675 240.06C209.495 240.449 209.405 241.061 209.405 241.897V261.605C207.961 262.143 206.201 262.68 204.125 263.218V251.751H200.199V260.306C199.416 260.605 198.589 260.889 197.717 261.157C196.844 261.426 195.926 261.68 194.964 261.919V242.076C194.964 241.359 194.919 240.792 194.828 240.374C194.768 239.926 194.633 239.493 194.422 239.075ZM188.059 256.813C187.066 255.618 185.953 254.498 184.72 253.453C184.028 254.618 183.2 255.693 182.238 256.678C181.666 257.275 181.109 257.813 180.568 258.291C180.026 258.768 179.455 259.216 178.853 259.634C178.281 260.052 177.65 260.47 176.958 260.889C176.296 261.307 175.544 261.74 174.701 262.188L173.663 260.933C174.957 259.619 176.01 258.455 176.822 257.44C177.635 256.424 178.357 255.334 178.988 254.17C179.38 253.483 179.695 252.826 179.936 252.199C180.207 251.542 180.433 250.87 180.613 250.183C180.794 249.467 180.929 248.705 181.019 247.899C181.109 247.063 181.185 246.122 181.245 245.077L181.29 243.957C181.32 243.241 181.29 242.658 181.2 242.21C181.109 241.733 180.959 241.285 180.748 240.867L180.884 240.508C182.147 240.568 183.396 240.702 184.629 240.911C185.893 241.12 187.142 241.389 188.375 241.718C187.864 241.837 187.503 242.091 187.292 242.479C187.081 242.867 186.961 243.48 186.931 244.316C186.901 244.973 186.856 245.615 186.796 246.242C186.765 246.839 186.675 247.57 186.525 248.436C186.465 248.825 186.389 249.198 186.299 249.556C186.239 249.885 186.149 250.213 186.028 250.542L189.594 252.916C190.406 253.453 191.053 253.856 191.534 254.125C192.015 254.394 192.557 254.618 193.159 254.797C192.497 256.738 191.369 258.485 189.774 260.038C189.594 259.381 189.368 258.813 189.097 258.335C188.826 257.828 188.48 257.32 188.059 256.813ZM188.646 272.4C188.646 274.013 189.308 275.282 190.631 276.207C191.985 277.133 193.775 277.596 196.002 277.596C198.228 277.596 200.003 277.133 201.327 276.207C202.681 275.282 203.357 274.013 203.357 272.4C203.357 270.788 202.681 269.518 201.327 268.593C200.003 267.667 198.228 267.204 196.002 267.204C193.775 267.204 191.985 267.667 190.631 268.593C189.308 269.518 188.646 270.788 188.646 272.4Z" fill="#066E52"/>
<path d="M238.214 238.717C239.808 238.717 241.328 238.911 242.772 239.299C244.246 239.657 245.54 240.21 246.653 240.956C247.796 241.673 248.698 242.569 249.36 243.644C250.052 244.719 250.398 245.973 250.398 247.406C250.398 248.84 250.052 250.094 249.36 251.169C248.698 252.244 247.796 253.155 246.653 253.901C245.54 254.618 244.246 255.17 242.772 255.558C241.328 255.917 239.808 256.096 238.214 256.096C236.619 256.096 235.085 255.917 233.611 255.558C232.167 255.17 230.873 254.618 229.73 253.901C228.617 253.155 227.714 252.244 227.022 251.169C226.36 250.094 226.029 248.84 226.029 247.406C226.029 245.973 226.36 244.719 227.022 243.644C227.714 242.569 228.617 241.673 229.73 240.956C230.873 240.21 232.167 239.657 233.611 239.299C235.085 238.911 236.619 238.717 238.214 238.717ZM238.214 242.3C236.228 242.3 234.664 242.778 233.52 243.733C232.407 244.689 231.851 245.913 231.851 247.406C231.851 248.899 232.407 250.124 233.52 251.079C234.664 252.035 236.228 252.513 238.214 252.513C240.199 252.513 241.749 252.035 242.862 251.079C244.005 250.124 244.577 248.899 244.577 247.406C244.577 245.913 244.005 244.689 242.862 243.733C241.749 242.778 240.199 242.3 238.214 242.3ZM231.309 276.207C236.243 276.207 240.5 276.118 244.08 275.939C245.555 275.849 247.059 275.67 248.593 275.401C250.127 275.162 251.421 274.864 252.474 274.505C252.384 275.55 252.264 276.446 252.113 277.193C251.993 277.939 251.797 278.775 251.526 279.701H225.578V269.847C225.578 268.264 225.352 267.115 224.901 266.398L225.036 265.995C228.135 266.144 230.692 266.592 232.708 267.339C232.167 267.458 231.791 267.712 231.58 268.1C231.399 268.488 231.309 269.115 231.309 269.981V276.207ZM218.809 258.963C219.952 259.201 221.11 259.366 222.284 259.455C223.487 259.515 224.675 259.545 225.849 259.545H250.173C251.105 259.545 252.053 259.5 253.016 259.41C253.978 259.321 254.881 259.052 255.723 258.604C256.145 259.41 256.475 260.247 256.716 261.113C256.957 261.978 257.152 262.844 257.303 263.71C255.046 263.263 252.76 263.039 250.443 263.039H226.12C225.157 263.039 224.194 263.128 223.231 263.307C222.269 263.486 221.351 263.8 220.479 264.248C220.118 263.382 219.802 262.516 219.531 261.65C219.26 260.754 219.019 259.858 218.809 258.963Z" fill="#066E52"/>
<path d="M311.824 272.624H287.5C286.538 272.624 285.575 272.714 284.612 272.893C283.649 273.072 282.732 273.385 281.859 273.833C281.468 272.967 281.137 272.086 280.867 271.191C280.626 270.295 280.4 269.384 280.19 268.458C281.333 268.697 282.491 268.861 283.664 268.951C284.868 269.011 286.056 269.041 287.23 269.041H293.006V258.111C293.006 257.514 292.961 256.917 292.871 256.32C292.78 255.723 292.54 255.17 292.149 254.663L292.284 254.259C293.668 254.259 295.082 254.394 296.526 254.663C297.97 254.931 299.324 255.349 300.587 255.917C299.835 256.066 299.369 256.38 299.188 256.857C299.038 257.335 298.963 257.902 298.963 258.559V269.041H311.553C312.486 269.041 313.434 268.996 314.397 268.906C315.359 268.817 316.262 268.548 317.104 268.1C317.495 268.936 317.811 269.787 318.052 270.653C318.323 271.519 318.533 272.4 318.684 273.296C316.427 272.848 314.141 272.624 311.824 272.624ZM292.69 242.121H303.656C304.649 242.121 305.642 242.031 306.635 241.852C307.657 241.643 308.485 241.374 309.117 241.046C309.839 241.374 310.546 241.762 311.238 242.21C311.96 242.628 312.516 243.002 312.907 243.33C312.787 247.421 312.396 251.109 311.734 254.394C311.072 257.649 310.079 260.68 308.756 263.486H305.461C305.732 261.993 305.958 260.545 306.138 259.142C306.319 257.738 306.454 256.32 306.544 254.886C306.665 253.453 306.755 251.99 306.815 250.497C306.875 249.004 306.905 247.406 306.905 245.704H292.374C291.02 245.704 289.937 245.824 289.125 246.062C288.343 246.272 287.681 246.6 287.139 247.048C286.778 246.301 286.447 245.45 286.147 244.495C285.876 243.539 285.68 242.643 285.56 241.807L285.695 241.673C286.477 241.822 287.41 241.942 288.493 242.031C289.576 242.091 290.975 242.121 292.69 242.121Z" fill="#066E52"/>
<path d="M359.903 277.954C357.978 278.969 356.052 279.85 354.127 280.597V241.359C354.127 240.822 354.097 240.314 354.036 239.836C353.976 239.329 353.826 238.836 353.585 238.358L353.72 238C355.014 238.06 356.293 238.194 357.556 238.403C358.82 238.612 360.083 238.911 361.347 239.299C360.685 239.448 360.279 239.777 360.129 240.284C359.978 240.792 359.903 241.33 359.903 241.897V277.954ZM343.928 241.762C345.312 242.36 346.56 243.121 347.673 244.047C347.613 245.122 347.433 246.227 347.132 247.361C346.861 248.466 346.485 249.616 346.004 250.81C345.342 252.423 344.484 253.976 343.431 255.469C342.408 256.962 341.22 258.395 339.866 259.769C339.084 260.575 338.257 261.366 337.384 262.143C336.542 262.889 335.639 263.651 334.677 264.427C333.714 265.174 332.661 265.935 331.518 266.711C330.404 267.458 329.171 268.234 327.817 269.041L326.373 267.652C328.539 265.86 330.389 264.188 331.924 262.635C333.458 261.053 334.842 259.425 336.075 257.753C337.52 255.782 338.678 253.901 339.55 252.109C340.453 250.318 341.115 248.377 341.536 246.286H334.406C331.698 246.286 329.803 246.734 328.72 247.63C327.998 246.077 327.501 244.375 327.23 242.524L327.366 242.39C328.87 242.688 331.352 242.837 334.812 242.837H339.686C340.919 242.837 342.333 242.479 343.928 241.762Z" fill="#066E52"/>
<path d="M399.182 238.358L399.317 238C400.611 238.06 401.889 238.194 403.153 238.403C404.417 238.612 405.68 238.911 406.944 239.299C406.282 239.448 405.876 239.777 405.725 240.284C405.575 240.792 405.5 241.33 405.5 241.897V278.089C404.537 278.507 403.574 278.925 402.611 279.343C401.679 279.791 400.716 280.209 399.723 280.597V254.08H396.158C395.135 254.08 394.278 254.14 393.586 254.259C392.894 254.349 392.277 254.498 391.736 254.707C391.495 253.961 391.299 253.229 391.149 252.513C391.029 251.796 390.908 251.005 390.788 250.139C391.871 250.288 392.849 250.377 393.721 250.407C394.624 250.407 395.466 250.407 396.248 250.407H399.723V241.359C399.723 240.822 399.693 240.314 399.633 239.836C399.573 239.329 399.422 238.836 399.182 238.358ZM381.176 244.495C381.176 244.047 381.131 243.614 381.04 243.196C380.98 242.748 380.845 242.315 380.634 241.897L380.77 241.539C382.123 241.598 383.462 241.733 384.786 241.942C386.14 242.151 387.464 242.449 388.757 242.837C388.276 242.927 387.915 243.181 387.674 243.599C387.554 243.778 387.434 244.256 387.313 245.032C387.193 245.809 387.072 246.675 386.952 247.63C386.862 248.556 386.772 249.467 386.681 250.363C386.591 251.228 386.501 251.856 386.411 252.244C386.29 252.781 386.155 253.304 386.004 253.811C385.854 254.289 385.689 254.767 385.508 255.245L391.6 258.828C392.202 259.186 392.804 259.5 393.405 259.769C394.007 260.038 394.654 260.247 395.346 260.396C394.925 261.441 394.398 262.441 393.766 263.397C393.165 264.352 392.458 265.233 391.645 266.04C391.435 265.263 391.044 264.502 390.472 263.755C389.9 263.009 389.239 262.307 388.486 261.65C387.734 260.963 386.952 260.321 386.14 259.724C385.358 259.127 384.651 258.589 384.019 258.111C382.635 260.291 380.89 262.158 378.784 263.71C376.678 265.263 374.407 266.607 371.97 267.742L370.932 266.398C373.639 264.278 375.926 261.755 377.791 258.828C378.513 257.693 379.085 256.559 379.506 255.424C379.957 254.289 380.303 253.125 380.544 251.93C380.815 250.736 380.98 249.526 381.04 248.302C381.131 247.078 381.176 245.809 381.176 244.495Z" fill="#066E52"/>
<path d="M463.496 272.624H439.172C438.209 272.624 437.247 272.714 436.284 272.893C435.321 273.072 434.404 273.385 433.531 273.833C433.14 272.967 432.809 272.086 432.538 271.191C432.298 270.295 432.072 269.384 431.861 268.458C433.005 268.697 434.163 268.861 435.336 268.951C436.54 269.011 437.728 269.041 438.901 269.041H444.678V258.111C444.678 257.514 444.633 256.917 444.542 256.32C444.452 255.723 444.211 255.17 443.82 254.663L443.956 254.259C445.339 254.259 446.754 254.394 448.198 254.663C449.642 254.931 450.996 255.349 452.259 255.917C451.507 256.066 451.041 256.38 450.86 256.857C450.71 257.335 450.634 257.902 450.634 258.559V269.041H463.225C464.158 269.041 465.105 268.996 466.068 268.906C467.031 268.817 467.933 268.548 468.776 268.1C469.167 268.936 469.483 269.787 469.724 270.653C469.994 271.519 470.205 272.4 470.355 273.296C468.099 272.848 465.812 272.624 463.496 272.624ZM444.362 242.121H455.328C456.321 242.121 457.313 242.031 458.306 241.852C459.329 241.643 460.156 241.374 460.788 241.046C461.51 241.374 462.217 241.762 462.909 242.21C463.631 242.628 464.188 243.002 464.579 243.33C464.459 247.421 464.068 251.109 463.406 254.394C462.744 257.649 461.751 260.68 460.427 263.486H457.133C457.404 261.993 457.629 260.545 457.81 259.142C457.99 257.738 458.126 256.32 458.216 254.886C458.336 253.453 458.427 251.99 458.487 250.497C458.547 249.004 458.577 247.406 458.577 245.704H444.046C442.692 245.704 441.609 245.824 440.797 246.062C440.014 246.272 439.353 246.6 438.811 247.048C438.45 246.301 438.119 245.45 437.818 244.495C437.547 243.539 437.352 242.643 437.232 241.807L437.367 241.673C438.149 241.822 439.082 241.942 440.165 242.031C441.248 242.091 442.647 242.121 444.362 242.121Z" fill="#066E52"/>
<path d="M511.575 277.954C509.649 278.969 507.724 279.85 505.798 280.597V241.359C505.798 240.822 505.768 240.314 505.708 239.836C505.648 239.329 505.497 238.836 505.257 238.358L505.392 238C506.686 238.06 507.964 238.194 509.228 238.403C510.492 238.612 511.755 238.911 513.019 239.299C512.357 239.448 511.951 239.777 511.8 240.284C511.65 240.792 511.575 241.33 511.575 241.897V277.954ZM495.599 241.762C496.983 242.36 498.232 243.121 499.345 244.047C499.285 245.122 499.104 246.227 498.803 247.361C498.533 248.466 498.157 249.616 497.675 250.81C497.013 252.423 496.156 253.976 495.103 255.469C494.08 256.962 492.892 258.395 491.538 259.769C490.756 260.575 489.928 261.366 489.056 262.143C488.214 262.889 487.311 263.651 486.348 264.427C485.385 265.174 484.333 265.935 483.189 266.711C482.076 267.458 480.843 268.234 479.489 269.041L478.045 267.652C480.211 265.86 482.061 264.188 483.595 262.635C485.13 261.053 486.514 259.425 487.747 257.753C489.191 255.782 490.35 253.901 491.222 252.109C492.125 250.318 492.786 248.377 493.208 246.286H486.077C483.37 246.286 481.474 246.734 480.391 247.63C479.669 246.077 479.173 244.375 478.902 242.524L479.038 242.39C480.542 242.688 483.024 242.837 486.484 242.837H491.357C492.591 242.837 494.005 242.479 495.599 241.762Z" fill="#066E52"/>
<path d="M549.184 238.358L549.319 238C550.613 238.06 551.891 238.194 553.155 238.403C554.419 238.612 555.682 238.911 556.946 239.299C556.284 239.448 555.878 239.777 555.727 240.284C555.577 240.792 555.502 241.33 555.502 241.897V253.184C556.585 253.184 557.653 253.155 558.706 253.095C559.789 253.005 560.887 252.841 562 252.602C561.97 253.438 561.91 254.259 561.82 255.066C561.759 255.872 561.639 256.678 561.458 257.484C560.466 257.245 559.473 257.096 558.48 257.036C557.487 256.977 556.494 256.947 555.502 256.947V278.089C554.599 278.566 553.651 279.014 552.659 279.432C551.696 279.85 550.718 280.239 549.725 280.597V241.359C549.725 240.822 549.695 240.314 549.635 239.836C549.575 239.329 549.424 238.836 549.184 238.358ZM525.221 266.756L525.176 246.914C524.905 246.048 524.664 245.316 524.454 244.719C524.273 244.122 524.108 243.39 523.957 242.524L524.048 242.39C526.244 242.569 528.44 242.658 530.636 242.658H537.135C538.488 242.658 539.587 242.614 540.429 242.524C541.301 242.434 542.084 242.27 542.776 242.031C543.137 242.808 543.422 243.554 543.633 244.271C543.874 244.958 544.084 245.674 544.265 246.421C543.783 246.361 543.332 246.316 542.911 246.286C542.49 246.257 542.054 246.227 541.602 246.197C541.151 246.167 540.64 246.152 540.068 246.152C539.526 246.152 538.88 246.152 538.127 246.152H530.907V262.008C533.615 261.859 536.262 261.68 538.849 261.471C541.437 261.232 544.099 260.948 546.837 260.62L546.205 263.845C545.483 263.964 544.791 264.084 544.129 264.203C543.468 264.293 542.776 264.397 542.054 264.517C541.362 264.636 540.594 264.756 539.752 264.875C538.94 264.994 538.007 265.114 536.954 265.233L525.221 266.756Z" fill="#066E52"/>
<path d="M131 250.945C131 249.422 131.241 248.003 131.722 246.69C132.203 245.376 132.895 244.241 133.798 243.285C134.7 242.3 135.784 241.539 137.047 241.001C138.341 240.434 139.785 240.15 141.379 240.15C142.974 240.15 144.403 240.434 145.667 241.001C146.96 241.539 148.058 242.3 148.961 243.285C149.863 244.241 150.555 245.376 151.037 246.69C151.518 248.003 151.759 249.422 151.759 250.945C151.759 252.468 151.518 253.886 151.037 255.2C150.555 256.514 149.863 257.664 148.961 258.649C148.058 259.605 146.96 260.366 145.667 260.933C144.403 261.471 142.974 261.74 141.379 261.74C139.785 261.74 138.341 261.471 137.047 260.933C135.784 260.366 134.7 259.605 133.798 258.649C132.895 257.664 132.203 256.514 131.722 255.2C131.241 253.886 131 252.468 131 250.945ZM136.731 250.945C136.731 253.184 137.137 254.946 137.95 256.23C138.762 257.484 139.905 258.111 141.379 258.111C142.854 258.111 143.997 257.484 144.809 256.23C145.621 254.946 146.028 253.184 146.028 250.945C146.028 248.705 145.621 246.958 144.809 245.704C143.997 244.42 142.854 243.778 141.379 243.778C139.905 243.778 138.762 244.42 137.95 245.704C137.137 246.958 136.731 248.705 136.731 250.945ZM156.768 238.358L156.903 238C158.197 238.06 159.476 238.194 160.739 238.403C162.003 238.612 163.266 238.911 164.53 239.299C163.868 239.448 163.462 239.777 163.311 240.284C163.161 240.792 163.086 241.33 163.086 241.897V268.1C161.221 268.787 159.295 269.384 157.31 269.892V241.359C157.31 240.822 157.279 240.314 157.219 239.836C157.159 239.329 157.009 238.836 156.768 238.358ZM137.363 266.756L137.498 266.398C138.852 266.458 140.146 266.607 141.379 266.846C142.613 267.055 143.831 267.339 145.035 267.697C144.493 267.816 144.117 268.085 143.907 268.503C143.696 268.891 143.591 269.489 143.591 270.295V276.297C145.606 276.297 147.592 276.282 149.548 276.252C151.533 276.222 153.654 276.148 155.911 276.028C157.535 275.939 159.069 275.774 160.514 275.535C161.958 275.297 163.221 274.998 164.304 274.64C164.184 275.685 164.034 276.566 163.853 277.282C163.703 277.999 163.492 278.82 163.221 279.746H137.905V269.757C137.905 269.041 137.859 268.473 137.769 268.055C137.709 267.607 137.574 267.174 137.363 266.756Z" stroke="#066E52" stroke-width="2" stroke-linejoin="round" mask="url(#path-7-outside-2_18_91)"/>
<path d="M183.185 272.4C183.185 271.086 183.486 269.907 184.088 268.861C184.69 267.786 185.547 266.876 186.66 266.129C187.803 265.383 189.157 264.815 190.722 264.427C192.286 264.009 194.046 263.8 196.002 263.8C197.927 263.8 199.672 264.009 201.236 264.427C202.831 264.815 204.185 265.383 205.298 266.129C206.441 266.876 207.314 267.786 207.915 268.861C208.517 269.907 208.818 271.086 208.818 272.4C208.818 273.714 208.517 274.893 207.915 275.939C207.314 277.014 206.441 277.924 205.298 278.671C204.185 279.417 202.831 279.985 201.236 280.373C199.672 280.791 197.927 281 196.002 281C194.046 281 192.286 280.791 190.722 280.373C189.157 279.985 187.803 279.417 186.66 278.671C185.547 277.924 184.69 277.014 184.088 275.939C183.486 274.893 183.185 273.714 183.185 272.4ZM194.422 239.075L194.558 238.717C195.611 238.776 196.754 238.926 197.987 239.165C199.221 239.374 200.379 239.687 201.462 240.105C200.951 240.225 200.605 240.478 200.424 240.867C200.274 241.255 200.199 241.867 200.199 242.703V248.078H204.125V241.359C204.125 240.643 204.08 240.075 203.989 239.657C203.929 239.209 203.794 238.776 203.583 238.358L203.718 238C204.741 238.06 205.87 238.209 207.103 238.448C208.337 238.657 209.555 238.941 210.758 239.299C210.247 239.418 209.886 239.672 209.675 240.06C209.495 240.449 209.405 241.061 209.405 241.897V261.605C207.961 262.143 206.201 262.68 204.125 263.218V251.751H200.199V260.306C199.416 260.605 198.589 260.889 197.717 261.157C196.844 261.426 195.926 261.68 194.964 261.919V242.076C194.964 241.359 194.919 240.792 194.828 240.374C194.768 239.926 194.633 239.493 194.422 239.075ZM188.059 256.813C187.066 255.618 185.953 254.498 184.72 253.453C184.028 254.618 183.2 255.693 182.238 256.678C181.666 257.275 181.109 257.813 180.568 258.291C180.026 258.768 179.455 259.216 178.853 259.634C178.281 260.052 177.65 260.47 176.958 260.889C176.296 261.307 175.544 261.74 174.701 262.188L173.663 260.933C174.957 259.619 176.01 258.455 176.822 257.44C177.635 256.424 178.357 255.334 178.988 254.17C179.38 253.483 179.695 252.826 179.936 252.199C180.207 251.542 180.433 250.87 180.613 250.183C180.794 249.467 180.929 248.705 181.019 247.899C181.109 247.063 181.185 246.122 181.245 245.077L181.29 243.957C181.32 243.241 181.29 242.658 181.2 242.21C181.109 241.733 180.959 241.285 180.748 240.867L180.884 240.508C182.147 240.568 183.396 240.702 184.629 240.911C185.893 241.12 187.142 241.389 188.375 241.718C187.864 241.837 187.503 242.091 187.292 242.479C187.081 242.867 186.961 243.48 186.931 244.316C186.901 244.973 186.856 245.615 186.796 246.242C186.765 246.839 186.675 247.57 186.525 248.436C186.465 248.825 186.389 249.198 186.299 249.556C186.239 249.885 186.149 250.213 186.028 250.542L189.594 252.916C190.406 253.453 191.053 253.856 191.534 254.125C192.015 254.394 192.557 254.618 193.159 254.797C192.497 256.738 191.369 258.485 189.774 260.038C189.594 259.381 189.368 258.813 189.097 258.335C188.826 257.828 188.48 257.32 188.059 256.813ZM188.646 272.4C188.646 274.013 189.308 275.282 190.631 276.207C191.985 277.133 193.775 277.596 196.002 277.596C198.228 277.596 200.003 277.133 201.327 276.207C202.681 275.282 203.357 274.013 203.357 272.4C203.357 270.788 202.681 269.518 201.327 268.593C200.003 267.667 198.228 267.204 196.002 267.204C193.775 267.204 191.985 267.667 190.631 268.593C189.308 269.518 188.646 270.788 188.646 272.4Z" stroke="#066E52" stroke-width="2" stroke-linejoin="round" mask="url(#path-7-outside-2_18_91)"/>
<path d="M238.214 238.717C239.808 238.717 241.328 238.911 242.772 239.299C244.246 239.657 245.54 240.21 246.653 240.956C247.796 241.673 248.698 242.569 249.36 243.644C250.052 244.719 250.398 245.973 250.398 247.406C250.398 248.84 250.052 250.094 249.36 251.169C248.698 252.244 247.796 253.155 246.653 253.901C245.54 254.618 244.246 255.17 242.772 255.558C241.328 255.917 239.808 256.096 238.214 256.096C236.619 256.096 235.085 255.917 233.611 255.558C232.167 255.17 230.873 254.618 229.73 253.901C228.617 253.155 227.714 252.244 227.022 251.169C226.36 250.094 226.029 248.84 226.029 247.406C226.029 245.973 226.36 244.719 227.022 243.644C227.714 242.569 228.617 241.673 229.73 240.956C230.873 240.21 232.167 239.657 233.611 239.299C235.085 238.911 236.619 238.717 238.214 238.717ZM238.214 242.3C236.228 242.3 234.664 242.778 233.52 243.733C232.407 244.689 231.851 245.913 231.851 247.406C231.851 248.899 232.407 250.124 233.52 251.079C234.664 252.035 236.228 252.513 238.214 252.513C240.199 252.513 241.749 252.035 242.862 251.079C244.005 250.124 244.577 248.899 244.577 247.406C244.577 245.913 244.005 244.689 242.862 243.733C241.749 242.778 240.199 242.3 238.214 242.3ZM231.309 276.207C236.243 276.207 240.5 276.118 244.08 275.939C245.555 275.849 247.059 275.67 248.593 275.401C250.127 275.162 251.421 274.864 252.474 274.505C252.384 275.55 252.264 276.446 252.113 277.193C251.993 277.939 251.797 278.775 251.526 279.701H225.578V269.847C225.578 268.264 225.352 267.115 224.901 266.398L225.036 265.995C228.135 266.144 230.692 266.592 232.708 267.339C232.167 267.458 231.791 267.712 231.58 268.1C231.399 268.488 231.309 269.115 231.309 269.981V276.207ZM218.809 258.963C219.952 259.201 221.11 259.366 222.284 259.455C223.487 259.515 224.675 259.545 225.849 259.545H250.173C251.105 259.545 252.053 259.5 253.016 259.41C253.978 259.321 254.881 259.052 255.723 258.604C256.145 259.41 256.475 260.247 256.716 261.113C256.957 261.978 257.152 262.844 257.303 263.71C255.046 263.263 252.76 263.039 250.443 263.039H226.12C225.157 263.039 224.194 263.128 223.231 263.307C222.269 263.486 221.351 263.8 220.479 264.248C220.118 263.382 219.802 262.516 219.531 261.65C219.26 260.754 219.019 259.858 218.809 258.963Z" stroke="#066E52" stroke-width="2" stroke-linejoin="round" mask="url(#path-7-outside-2_18_91)"/>
<path d="M311.824 272.624H287.5C286.538 272.624 285.575 272.714 284.612 272.893C283.649 273.072 282.732 273.385 281.859 273.833C281.468 272.967 281.137 272.086 280.867 271.191C280.626 270.295 280.4 269.384 280.19 268.458C281.333 268.697 282.491 268.861 283.664 268.951C284.868 269.011 286.056 269.041 287.23 269.041H293.006V258.111C293.006 257.514 292.961 256.917 292.871 256.32C292.78 255.723 292.54 255.17 292.149 254.663L292.284 254.259C293.668 254.259 295.082 254.394 296.526 254.663C297.97 254.931 299.324 255.349 300.587 255.917C299.835 256.066 299.369 256.38 299.188 256.857C299.038 257.335 298.963 257.902 298.963 258.559V269.041H311.553C312.486 269.041 313.434 268.996 314.397 268.906C315.359 268.817 316.262 268.548 317.104 268.1C317.495 268.936 317.811 269.787 318.052 270.653C318.323 271.519 318.533 272.4 318.684 273.296C316.427 272.848 314.141 272.624 311.824 272.624ZM292.69 242.121H303.656C304.649 242.121 305.642 242.031 306.635 241.852C307.657 241.643 308.485 241.374 309.117 241.046C309.839 241.374 310.546 241.762 311.238 242.21C311.96 242.628 312.516 243.002 312.907 243.33C312.787 247.421 312.396 251.109 311.734 254.394C311.072 257.649 310.079 260.68 308.756 263.486H305.461C305.732 261.993 305.958 260.545 306.138 259.142C306.319 257.738 306.454 256.32 306.544 254.886C306.665 253.453 306.755 251.99 306.815 250.497C306.875 249.004 306.905 247.406 306.905 245.704H292.374C291.02 245.704 289.937 245.824 289.125 246.062C288.343 246.272 287.681 246.6 287.139 247.048C286.778 246.301 286.447 245.45 286.147 244.495C285.876 243.539 285.68 242.643 285.56 241.807L285.695 241.673C286.477 241.822 287.41 241.942 288.493 242.031C289.576 242.091 290.975 242.121 292.69 242.121Z" stroke="#066E52" stroke-width="2" stroke-linejoin="round" mask="url(#path-7-outside-2_18_91)"/>
<path d="M359.903 277.954C357.978 278.969 356.052 279.85 354.127 280.597V241.359C354.127 240.822 354.097 240.314 354.036 239.836C353.976 239.329 353.826 238.836 353.585 238.358L353.72 238C355.014 238.06 356.293 238.194 357.556 238.403C358.82 238.612 360.083 238.911 361.347 239.299C360.685 239.448 360.279 239.777 360.129 240.284C359.978 240.792 359.903 241.33 359.903 241.897V277.954ZM343.928 241.762C345.312 242.36 346.56 243.121 347.673 244.047C347.613 245.122 347.433 246.227 347.132 247.361C346.861 248.466 346.485 249.616 346.004 250.81C345.342 252.423 344.484 253.976 343.431 255.469C342.408 256.962 341.22 258.395 339.866 259.769C339.084 260.575 338.257 261.366 337.384 262.143C336.542 262.889 335.639 263.651 334.677 264.427C333.714 265.174 332.661 265.935 331.518 266.711C330.404 267.458 329.171 268.234 327.817 269.041L326.373 267.652C328.539 265.86 330.389 264.188 331.924 262.635C333.458 261.053 334.842 259.425 336.075 257.753C337.52 255.782 338.678 253.901 339.55 252.109C340.453 250.318 341.115 248.377 341.536 246.286H334.406C331.698 246.286 329.803 246.734 328.72 247.63C327.998 246.077 327.501 244.375 327.23 242.524L327.366 242.39C328.87 242.688 331.352 242.837 334.812 242.837H339.686C340.919 242.837 342.333 242.479 343.928 241.762Z" stroke="#066E52" stroke-width="2" stroke-linejoin="round" mask="url(#path-7-outside-2_18_91)"/>
<path d="M399.182 238.358L399.317 238C400.611 238.06 401.889 238.194 403.153 238.403C404.417 238.612 405.68 238.911 406.944 239.299C406.282 239.448 405.876 239.777 405.725 240.284C405.575 240.792 405.5 241.33 405.5 241.897V278.089C404.537 278.507 403.574 278.925 402.611 279.343C401.679 279.791 400.716 280.209 399.723 280.597V254.08H396.158C395.135 254.08 394.278 254.14 393.586 254.259C392.894 254.349 392.277 254.498 391.736 254.707C391.495 253.961 391.299 253.229 391.149 252.513C391.029 251.796 390.908 251.005 390.788 250.139C391.871 250.288 392.849 250.377 393.721 250.407C394.624 250.407 395.466 250.407 396.248 250.407H399.723V241.359C399.723 240.822 399.693 240.314 399.633 239.836C399.573 239.329 399.422 238.836 399.182 238.358ZM381.176 244.495C381.176 244.047 381.131 243.614 381.04 243.196C380.98 242.748 380.845 242.315 380.634 241.897L380.77 241.539C382.123 241.598 383.462 241.733 384.786 241.942C386.14 242.151 387.464 242.449 388.757 242.837C388.276 242.927 387.915 243.181 387.674 243.599C387.554 243.778 387.434 244.256 387.313 245.032C387.193 245.809 387.072 246.675 386.952 247.63C386.862 248.556 386.772 249.467 386.681 250.363C386.591 251.228 386.501 251.856 386.411 252.244C386.29 252.781 386.155 253.304 386.004 253.811C385.854 254.289 385.689 254.767 385.508 255.245L391.6 258.828C392.202 259.186 392.804 259.5 393.405 259.769C394.007 260.038 394.654 260.247 395.346 260.396C394.925 261.441 394.398 262.441 393.766 263.397C393.165 264.352 392.458 265.233 391.645 266.04C391.435 265.263 391.044 264.502 390.472 263.755C389.9 263.009 389.239 262.307 388.486 261.65C387.734 260.963 386.952 260.321 386.14 259.724C385.358 259.127 384.651 258.589 384.019 258.111C382.635 260.291 380.89 262.158 378.784 263.71C376.678 265.263 374.407 266.607 371.97 267.742L370.932 266.398C373.639 264.278 375.926 261.755 377.791 258.828C378.513 257.693 379.085 256.559 379.506 255.424C379.957 254.289 380.303 253.125 380.544 251.93C380.815 250.736 380.98 249.526 381.04 248.302C381.131 247.078 381.176 245.809 381.176 244.495Z" stroke="#066E52" stroke-width="2" stroke-linejoin="round" mask="url(#path-7-outside-2_18_91)"/>
<path d="M463.496 272.624H439.172C438.209 272.624 437.247 272.714 436.284 272.893C435.321 273.072 434.404 273.385 433.531 273.833C433.14 272.967 432.809 272.086 432.538 271.191C432.298 270.295 432.072 269.384 431.861 268.458C433.005 268.697 434.163 268.861 435.336 268.951C436.54 269.011 437.728 269.041 438.901 269.041H444.678V258.111C444.678 257.514 444.633 256.917 444.542 256.32C444.452 255.723 444.211 255.17 443.82 254.663L443.956 254.259C445.339 254.259 446.754 254.394 448.198 254.663C449.642 254.931 450.996 255.349 452.259 255.917C451.507 256.066 451.041 256.38 450.86 256.857C450.71 257.335 450.634 257.902 450.634 258.559V269.041H463.225C464.158 269.041 465.105 268.996 466.068 268.906C467.031 268.817 467.933 268.548 468.776 268.1C469.167 268.936 469.483 269.787 469.724 270.653C469.994 271.519 470.205 272.4 470.355 273.296C468.099 272.848 465.812 272.624 463.496 272.624ZM444.362 242.121H455.328C456.321 242.121 457.313 242.031 458.306 241.852C459.329 241.643 460.156 241.374 460.788 241.046C461.51 241.374 462.217 241.762 462.909 242.21C463.631 242.628 464.188 243.002 464.579 243.33C464.459 247.421 464.068 251.109 463.406 254.394C462.744 257.649 461.751 260.68 460.427 263.486H457.133C457.404 261.993 457.629 260.545 457.81 259.142C457.99 257.738 458.126 256.32 458.216 254.886C458.336 253.453 458.427 251.99 458.487 250.497C458.547 249.004 458.577 247.406 458.577 245.704H444.046C442.692 245.704 441.609 245.824 440.797 246.062C440.014 246.272 439.353 246.6 438.811 247.048C438.45 246.301 438.119 245.45 437.818 244.495C437.547 243.539 437.352 242.643 437.232 241.807L437.367 241.673C438.149 241.822 439.082 241.942 440.165 242.031C441.248 242.091 442.647 242.121 444.362 242.121Z" stroke="#066E52" stroke-width="2" stroke-linejoin="round" mask="url(#path-7-outside-2_18_91)"/>
<path d="M511.575 277.954C509.649 278.969 507.724 279.85 505.798 280.597V241.359C505.798 240.822 505.768 240.314 505.708 239.836C505.648 239.329 505.497 238.836 505.257 238.358L505.392 238C506.686 238.06 507.964 238.194 509.228 238.403C510.492 238.612 511.755 238.911 513.019 239.299C512.357 239.448 511.951 239.777 511.8 240.284C511.65 240.792 511.575 241.33 511.575 241.897V277.954ZM495.599 241.762C496.983 242.36 498.232 243.121 499.345 244.047C499.285 245.122 499.104 246.227 498.803 247.361C498.533 248.466 498.157 249.616 497.675 250.81C497.013 252.423 496.156 253.976 495.103 255.469C494.08 256.962 492.892 258.395 491.538 259.769C490.756 260.575 489.928 261.366 489.056 262.143C488.214 262.889 487.311 263.651 486.348 264.427C485.385 265.174 484.333 265.935 483.189 266.711C482.076 267.458 480.843 268.234 479.489 269.041L478.045 267.652C480.211 265.86 482.061 264.188 483.595 262.635C485.13 261.053 486.514 259.425 487.747 257.753C489.191 255.782 490.35 253.901 491.222 252.109C492.125 250.318 492.786 248.377 493.208 246.286H486.077C483.37 246.286 481.474 246.734 480.391 247.63C479.669 246.077 479.173 244.375 478.902 242.524L479.038 242.39C480.542 242.688 483.024 242.837 486.484 242.837H491.357C492.591 242.837 494.005 242.479 495.599 241.762Z" stroke="#066E52" stroke-width="2" stroke-linejoin="round" mask="url(#path-7-outside-2_18_91)"/>
<path d="M549.184 238.358L549.319 238C550.613 238.06 551.891 238.194 553.155 238.403C554.419 238.612 555.682 238.911 556.946 239.299C556.284 239.448 555.878 239.777 555.727 240.284C555.577 240.792 555.502 241.33 555.502 241.897V253.184C556.585 253.184 557.653 253.155 558.706 253.095C559.789 253.005 560.887 252.841 562 252.602C561.97 253.438 561.91 254.259 561.82 255.066C561.759 255.872 561.639 256.678 561.458 257.484C560.466 257.245 559.473 257.096 558.48 257.036C557.487 256.977 556.494 256.947 555.502 256.947V278.089C554.599 278.566 553.651 279.014 552.659 279.432C551.696 279.85 550.718 280.239 549.725 280.597V241.359C549.725 240.822 549.695 240.314 549.635 239.836C549.575 239.329 549.424 238.836 549.184 238.358ZM525.221 266.756L525.176 246.914C524.905 246.048 524.664 245.316 524.454 244.719C524.273 244.122 524.108 243.39 523.957 242.524L524.048 242.39C526.244 242.569 528.44 242.658 530.636 242.658H537.135C538.488 242.658 539.587 242.614 540.429 242.524C541.301 242.434 542.084 242.27 542.776 242.031C543.137 242.808 543.422 243.554 543.633 244.271C543.874 244.958 544.084 245.674 544.265 246.421C543.783 246.361 543.332 246.316 542.911 246.286C542.49 246.257 542.054 246.227 541.602 246.197C541.151 246.167 540.64 246.152 540.068 246.152C539.526 246.152 538.88 246.152 538.127 246.152H530.907V262.008C533.615 261.859 536.262 261.68 538.849 261.471C541.437 261.232 544.099 260.948 546.837 260.62L546.205 263.845C545.483 263.964 544.791 264.084 544.129 264.203C543.468 264.293 542.776 264.397 542.054 264.517C541.362 264.636 540.594 264.756 539.752 264.875C538.94 264.994 538.007 265.114 536.954 265.233L525.221 266.756Z" stroke="#066E52" stroke-width="2" stroke-linejoin="round" mask="url(#path-7-outside-2_18_91)"/>
</svg>
