<svg width="700" height="214" viewBox="0 0 700 214" fill="none" xmlns="http://www.w3.org/2000/svg">
<mask id="path-1-outside-1_18_93" maskUnits="userSpaceOnUse" x="0" y="0" width="700" height="214" fill="black">
<rect fill="white" width="700" height="214"/>
<path fill-rule="evenodd" clip-rule="evenodd" d="M269.51 4C265.764 4 262.332 6.09327 260.618 9.42372L245.614 38.5763C243.9 41.9067 240.468 44 236.722 44H14C8.47715 44 4 48.4772 4 54V200C4 205.523 8.47714 210 14 210H686C691.523 210 696 205.523 696 200V54C696 48.4772 691.523 44 686 44H484.278C480.532 44 477.1 41.9067 475.386 38.5763L460.382 9.42371C458.668 6.09326 455.236 4 451.49 4H269.51Z"/>
</mask>
<path fill-rule="evenodd" clip-rule="evenodd" d="M269.51 4C265.764 4 262.332 6.09327 260.618 9.42372L245.614 38.5763C243.9 41.9067 240.468 44 236.722 44H14C8.47715 44 4 48.4772 4 54V200C4 205.523 8.47714 210 14 210H686C691.523 210 696 205.523 696 200V54C696 48.4772 691.523 44 686 44H484.278C480.532 44 477.1 41.9067 475.386 38.5763L460.382 9.42371C458.668 6.09326 455.236 4 451.49 4H269.51Z" fill="white"/>
<path d="M260.618 9.42372L264.175 11.2542V11.2542L260.618 9.42372ZM460.382 9.42371L463.938 7.5932V7.59319L460.382 9.42371ZM475.386 38.5763L478.943 36.7458L475.386 38.5763ZM245.614 38.5763L242.057 36.7458L245.614 38.5763ZM264.175 11.2542C265.203 9.25597 267.262 8 269.51 8V0C264.266 0 259.461 2.93057 257.062 7.59322L264.175 11.2542ZM249.17 40.4068L264.175 11.2542L257.062 7.5932L242.057 36.7458L249.17 40.4068ZM14 48H236.722V40H14V48ZM8 54C8 50.6863 10.6863 48 14 48V40C6.26801 40 0 46.268 0 54H8ZM8 200V54H0V200H8ZM14 206C10.6863 206 8 203.314 8 200H0C0 207.732 6.26799 214 14 214V206ZM686 206H14V214H686V206ZM692 200C692 203.314 689.314 206 686 206V214C693.732 214 700 207.732 700 200H692ZM692 54V200H700V54H692ZM686 48C689.314 48 692 50.6863 692 54H700C700 46.268 693.732 40 686 40V48ZM484.278 48H686V40H484.278V48ZM456.825 11.2542L471.83 40.4068L478.943 36.7458L463.938 7.5932L456.825 11.2542ZM451.49 8C453.738 8 455.797 9.25594 456.825 11.2542L463.938 7.59319C461.538 2.93058 456.734 0 451.49 0V8ZM269.51 8H451.49V0H269.51V8ZM484.278 40C482.03 40 479.971 38.744 478.943 36.7458L471.83 40.4068C474.229 45.0694 479.034 48 484.278 48V40ZM242.057 36.7458C241.029 38.744 238.97 40 236.722 40V48C241.966 48 246.771 45.0694 249.17 40.4068L242.057 36.7458Z" fill="black" mask="url(#path-1-outside-1_18_93)"/>
<path fill-rule="evenodd" clip-rule="evenodd" d="M275.672 11C271.918 11 268.48 13.1021 266.77 16.4435L251.356 46.5565C249.646 49.8979 246.208 52 242.454 52H24C18.4772 52 14 56.4772 14 62V192C14 197.523 18.4772 202 24 202H676C681.523 202 686 197.523 686 192V62C686 56.4772 681.523 52 676 52H478.546C474.792 52 471.354 49.8979 469.644 46.5565L454.23 16.4435C452.52 13.1021 449.082 11 445.328 11H275.672Z" fill="#066E52"/>
<path d="M315.842 49.332C311.027 49.332 307.508 46.4766 307.375 42.4922H311.592C311.725 44.4512 313.551 45.8457 315.842 45.8457C318.531 45.8457 320.457 43.8867 320.457 41.2305C320.457 38.4746 318.465 36.5156 315.709 36.5156C313.85 36.4824 312.488 37.1465 311.725 38.5742H307.707L309.168 24.9609H323.379V28.5801H312.721L311.99 34.9551H312.223C313.152 33.8926 314.912 33.1289 316.871 33.1289C321.354 33.1289 324.641 36.4824 324.641 41.0977C324.641 45.9121 321.021 49.332 315.842 49.332ZM351.137 48.3691L348.713 45.9785L355.984 38.7402H338.354V35.2539H355.984L348.713 28.0156L351.137 25.625L362.492 36.9805L351.137 48.3691ZM384.207 24.6289C388.922 24.6621 393.57 27.4512 393.604 36.25C393.604 44.5508 389.852 49.332 383.941 49.332C379.293 49.332 376.105 46.4434 375.574 42.459H379.857C380.289 44.3516 381.75 45.5801 383.941 45.5801C387.428 45.5801 389.387 42.4922 389.42 37.3457H389.154C387.926 39.4375 385.635 40.666 382.979 40.666C378.695 40.666 375.375 37.4121 375.342 32.8633C375.342 28.1484 378.861 24.5957 384.207 24.6289ZM384.24 28.1152C381.551 28.1152 379.525 30.207 379.559 32.7637C379.559 35.3535 381.484 37.3789 384.174 37.3789C386.83 37.3789 388.922 35.2207 388.889 32.7305C388.889 30.2734 386.93 28.1152 384.24 28.1152ZM397.189 49V45.8789L405.689 37.6777C408.113 35.2539 409.375 33.8262 409.375 31.8008C409.375 29.5762 407.615 28.1484 405.258 28.1484C402.768 28.1484 401.174 29.709 401.207 32.1328H397.09C397.057 27.584 400.477 24.6289 405.291 24.6289C410.205 24.6289 413.525 27.5508 413.525 31.6016C413.525 34.3242 412.197 36.5156 407.482 40.9648L403.199 45.2148V45.3809H413.891V49H397.189Z" fill="white"/>
<path d="M129.108 142.654H116.662C118.557 135.467 119.961 128.313 120.876 121.192C121.856 114.005 122.411 107.309 122.542 101.102H75.208V90.714H134.89C134.825 94.9607 134.629 99.338 134.302 103.846C133.975 108.354 133.551 112.862 133.028 117.37C132.571 121.878 131.983 126.288 131.264 130.6C130.611 134.847 129.892 138.865 129.108 142.654ZM146.944 160.686H62.86V150.592H91.966V121.878H104.216V150.592H146.944V160.686ZM243.964 82.972H256.116V173.818H243.964V82.972ZM180.754 146.77C186.895 143.83 192.155 140.596 196.532 137.068C200.975 133.475 204.666 129.718 207.606 125.798C210.546 121.813 212.8 117.697 214.368 113.45C216.001 109.203 217.079 104.957 217.602 100.71C210.35 100.906 203.098 101.004 195.846 101.004H185.458V90.616H201.04C205.679 90.616 210.383 90.616 215.152 90.616C219.987 90.616 225.181 90.5507 230.734 90.42C230.277 97.476 229.199 104.107 227.5 110.314C225.801 116.521 223.286 122.335 219.954 127.758C216.622 133.115 212.408 138.081 207.312 142.654C202.216 147.227 196.075 151.441 188.888 155.296L180.754 146.77ZM311.388 138.93V109.236H356.958V99.142H311.29V88.852H369.11V119.134H323.344V128.836H371.854V138.93H346.276V151.278H382.144V161.372H298.06V151.278H333.928V138.93H311.388ZM416.346 147.946H417.62C419.123 148.861 420.985 149.579 423.206 150.102C425.427 150.559 427.355 150.788 428.988 150.788C430.948 150.788 432.777 150.265 434.476 149.22C436.24 148.175 437.775 146.672 439.082 144.712C440.389 142.752 441.434 140.4 442.218 137.656C443.067 134.847 443.492 131.711 443.492 128.248C441.989 130.731 440.16 132.723 438.004 134.226C435.913 135.663 433.725 136.382 431.438 136.382C428.106 136.382 425.264 135.859 422.912 134.814C420.56 133.769 418.633 132.299 417.13 130.404C415.627 128.444 414.517 126.125 413.798 123.446C413.145 120.767 412.818 117.795 412.818 114.528C412.818 111.196 413.21 108.093 413.994 105.218C414.843 102.278 416.085 99.7627 417.718 97.672C419.417 95.5813 421.507 93.948 423.99 92.772C426.473 91.5307 429.38 90.91 432.712 90.91C437.22 90.91 440.813 91.9227 443.492 93.948C446.236 95.908 448.327 98.4233 449.764 101.494C451.267 104.565 452.247 107.962 452.704 111.686C453.227 115.345 453.488 118.873 453.488 122.27C453.488 126.255 453.129 130.437 452.41 134.814C451.757 139.191 450.515 143.242 448.686 146.966C446.922 150.625 444.439 153.663 441.238 156.08C438.102 158.432 434.051 159.608 429.086 159.608C426.669 159.608 424.415 159.379 422.324 158.922C420.233 158.399 418.241 157.583 416.346 156.472V147.946ZM442.316 114.528C442.316 112.895 442.12 111.196 441.728 109.432C441.401 107.668 440.846 106.067 440.062 104.63C439.278 103.127 438.265 101.919 437.024 101.004C435.848 100.024 434.443 99.534 432.81 99.534C431.046 99.534 429.576 99.9587 428.4 100.808C427.289 101.657 426.375 102.768 425.656 104.14C424.937 105.512 424.415 107.08 424.088 108.844C423.827 110.543 423.696 112.274 423.696 114.038C423.696 115.933 423.827 117.697 424.088 119.33C424.349 120.963 424.774 122.433 425.362 123.74C426.015 124.981 426.897 125.961 428.008 126.68C429.184 127.399 430.654 127.758 432.418 127.758C434.247 127.758 435.783 127.366 437.024 126.582C438.265 125.733 439.278 124.687 440.062 123.446C440.846 122.139 441.401 120.702 441.728 119.134C442.12 117.566 442.316 116.031 442.316 114.528ZM482.594 105.022V96.3C484.881 94.732 487.559 93.3927 490.63 92.282C493.701 91.106 496.902 90.518 500.234 90.518C506.375 90.518 511.308 92.0207 515.032 95.026C518.821 97.966 520.716 102.441 520.716 108.452C520.716 110.869 520.422 113.123 519.834 115.214C519.246 117.305 518.429 119.33 517.384 121.29C516.404 123.185 515.228 125.079 513.856 126.974C512.549 128.803 511.112 130.665 509.544 132.56L496.118 149.514H521.304V158.432H482.496V150.2L500.332 128.052C501.769 126.288 503.043 124.622 504.154 123.054C505.33 121.486 506.31 119.918 507.094 118.35C507.943 116.782 508.564 115.181 508.956 113.548C509.413 111.915 509.642 110.151 509.642 108.256C509.642 105.251 508.793 103.062 507.094 101.69C505.395 100.253 503.109 99.534 500.234 99.534C498.274 99.534 495.759 99.9587 492.688 100.808C489.683 101.592 486.677 102.997 483.672 105.022H482.594ZM590.688 96.594C588.271 96.6593 585.167 96.692 581.378 96.692C577.654 96.692 573.767 96.692 569.716 96.692H559.328V86.794H575.4C580.039 86.794 584.743 86.794 589.512 86.794C594.347 86.794 599.541 86.7287 605.094 86.598C604.702 91.694 603.363 96.496 601.076 101.004C598.855 105.512 595.817 109.628 591.962 113.352C588.173 117.076 583.665 120.408 578.438 123.348C573.211 126.223 567.397 128.575 560.994 130.404L554.33 121.388C564.653 118.448 572.917 114.953 579.124 110.902C585.331 106.786 589.185 102.017 590.688 96.594ZM616.364 82.972H628.516V127.464H616.364V82.972ZM630.28 172.838H570.5V147.358H616.462V141.184H570.5V131.286H628.516V156.668H582.358V162.94H630.28V172.838Z" fill="white"/>
</svg>
