<svg width="700" height="223" viewBox="0 0 700 223" fill="none" xmlns="http://www.w3.org/2000/svg">
<mask id="path-1-outside-1_18_92" maskUnits="userSpaceOnUse" x="0" y="0" width="700" height="223" fill="black">
<rect fill="white" width="700" height="223"/>
<path fill-rule="evenodd" clip-rule="evenodd" d="M269.51 4C265.764 4 262.332 6.09327 260.618 9.42372L245.614 38.5763C243.9 41.9067 240.468 44 236.722 44H14C8.47715 44 4 48.4772 4 54V209C4 214.523 8.47714 219 14 219H686C691.523 219 696 214.523 696 209V54C696 48.4772 691.523 44 686 44H484.278C480.532 44 477.1 41.9067 475.386 38.5763L460.382 9.42371C458.668 6.09326 455.236 4 451.49 4H269.51Z"/>
</mask>
<path fill-rule="evenodd" clip-rule="evenodd" d="M269.51 4C265.764 4 262.332 6.09327 260.618 9.42372L245.614 38.5763C243.9 41.9067 240.468 44 236.722 44H14C8.47715 44 4 48.4772 4 54V209C4 214.523 8.47714 219 14 219H686C691.523 219 696 214.523 696 209V54C696 48.4772 691.523 44 686 44H484.278C480.532 44 477.1 41.9067 475.386 38.5763L460.382 9.42371C458.668 6.09326 455.236 4 451.49 4H269.51Z" fill="white"/>
<path d="M260.618 9.42372L264.175 11.2542V11.2542L260.618 9.42372ZM460.382 9.42371L463.938 7.5932V7.59319L460.382 9.42371ZM475.386 38.5763L478.943 36.7458L475.386 38.5763ZM245.614 38.5763L242.057 36.7458L245.614 38.5763ZM264.175 11.2542C265.203 9.25597 267.262 8 269.51 8V0C264.266 0 259.461 2.93057 257.062 7.59322L264.175 11.2542ZM249.17 40.4068L264.175 11.2542L257.062 7.5932L242.057 36.7458L249.17 40.4068ZM14 48H236.722V40H14V48ZM8 54C8 50.6863 10.6863 48 14 48V40C6.26801 40 0 46.268 0 54H8ZM8 209V54H0V209H8ZM14 215C10.6863 215 8 212.314 8 209H0C0 216.732 6.26799 223 14 223V215ZM686 215H14V223H686V215ZM692 209C692 212.314 689.314 215 686 215V223C693.732 223 700 216.732 700 209H692ZM692 54V209H700V54H692ZM686 48C689.314 48 692 50.6863 692 54H700C700 46.268 693.732 40 686 40V48ZM484.278 48H686V40H484.278V48ZM456.825 11.2542L471.83 40.4068L478.943 36.7458L463.938 7.5932L456.825 11.2542ZM451.49 8C453.738 8 455.797 9.25594 456.825 11.2542L463.938 7.59319C461.538 2.93058 456.734 0 451.49 0V8ZM269.51 8H451.49V0H269.51V8ZM484.278 40C482.03 40 479.971 38.744 478.943 36.7458L471.83 40.4068C474.229 45.0694 479.034 48 484.278 48V40ZM242.057 36.7458C241.029 38.744 238.97 40 236.722 40V48C241.966 48 246.771 45.0694 249.17 40.4068L242.057 36.7458Z" fill="black" mask="url(#path-1-outside-1_18_92)"/>
<path fill-rule="evenodd" clip-rule="evenodd" d="M275.672 11C271.918 11 268.48 13.1021 266.77 16.4435L251.356 46.5565C249.646 49.8979 246.208 52 242.454 52H24C18.4772 52 14 56.4772 14 62V198C14 203.523 18.4772 208 24 208H676C681.523 208 686 203.523 686 198V62C686 56.4772 681.523 52 676 52H478.546C474.792 52 471.354 49.8979 469.644 46.5565L454.23 16.4435C452.52 13.1021 449.082 11 445.328 11H275.672Z" fill="#066E52"/>
<path d="M106.612 111.856C104.573 103.793 99.251 98.8706 91.446 98.8706C81.069 98.8706 73.6188 108.4 73.6188 125.47C73.6188 142.749 80.9803 152.279 91.7121 152.279C101.38 152.279 107.588 145.368 107.765 134.581H92.8651V123.795H118.941V132.906C118.941 152.384 107.588 164.532 91.7121 164.532C73.9735 164.532 62 149.661 62 125.575C62 101.279 74.5057 86.6181 91.3573 86.6181C105.548 86.6181 116.457 96.9856 118.409 111.856H106.612Z" fill="white"/>
<path d="M149.895 164.637C135.881 164.637 126.834 152.908 126.834 135.314C126.834 117.616 135.881 105.887 149.895 105.887C163.997 105.887 172.955 117.616 172.955 135.314C172.955 152.908 163.997 164.637 149.895 164.637ZM149.983 153.955C157.7 153.955 161.513 145.682 161.513 135.209C161.513 124.842 157.7 116.464 149.983 116.464C142.09 116.464 138.276 124.842 138.276 135.209C138.276 145.682 142.09 153.955 149.983 153.955Z" fill="white"/>
<path d="M202.756 186C189.984 186 181.913 179.298 181.114 168.616H192.378C193.177 173.538 197.168 175.947 202.933 175.947C209.674 175.947 214.108 172.491 214.108 164.113V153.222H213.576C211.802 157.411 207.988 162.647 199.651 162.647C188.565 162.647 179.784 153.117 179.784 134.581C179.784 115.836 188.565 105.887 199.74 105.887C208.254 105.887 211.802 111.856 213.576 115.94H214.108V106.62H225.283V164.427C225.283 178.984 215.793 186 202.756 186ZM202.756 152.175C210.028 152.175 214.197 145.682 214.197 134.791C214.197 124.004 210.117 116.778 202.756 116.778C195.217 116.778 191.314 124.423 191.314 134.791C191.314 145.263 195.305 152.175 202.756 152.175Z" fill="white"/>
<path d="M236.104 163.485V106.62H247.457V163.485H236.104ZM241.869 98.5565C238.321 98.5565 235.306 95.3101 235.306 91.2259C235.306 87.2464 238.321 84 241.869 84C245.505 84 248.432 87.2464 248.432 91.2259C248.432 95.3101 245.505 98.5565 241.869 98.5565Z" fill="white"/>
<path d="M303.067 164.532C289.32 164.532 279.564 155.735 279.297 142.959H290.916C291.271 149.033 296.415 153.012 303.067 153.012C310.163 153.012 315.218 148.405 315.218 141.702C315.218 134.895 310.251 129.973 301.914 129.973H296.149V119.501H301.914C308.743 119.501 313.533 114.998 313.444 108.4C313.533 102.012 309.453 97.7187 303.156 97.7187C297.125 97.7187 291.892 101.698 291.714 108.086H280.628C280.894 95.3101 290.65 86.6181 303.244 86.6181C316.282 86.6181 324.708 96.0431 324.619 107.667C324.708 116.15 319.919 122.329 312.912 124.004V124.632C321.959 126.099 327.103 132.906 327.014 142.435C327.103 155.211 316.992 164.532 303.067 164.532Z" fill="white"/>
<path d="M359.919 86.6181C372.514 86.7228 384.931 95.5195 385.019 123.271C385.019 149.452 374.997 164.532 359.21 164.532C346.793 164.532 338.278 155.421 336.859 142.854H348.3C349.453 148.823 353.356 152.698 359.21 152.698C368.522 152.698 373.755 142.959 373.844 126.727H373.134C369.853 133.324 363.733 137.199 356.638 137.199C345.196 137.199 336.327 126.936 336.238 112.589C336.238 97.7187 345.64 86.5133 359.919 86.6181ZM360.008 97.614C352.824 97.614 347.414 104.211 347.502 112.275C347.502 120.444 352.646 126.832 359.831 126.832C366.926 126.832 372.514 120.025 372.425 112.17C372.425 104.421 367.192 97.614 360.008 97.614Z" fill="white"/>
<path d="M393.445 149.347V138.456L421.206 87.6653H435.574V138.142H444V149.347H435.574V163.485H424.576V149.347H393.445ZM405.241 138.142H424.754V103.164H424.044L405.241 137.618V138.142Z" fill="white"/>
<path d="M590.631 110.285C590.079 103.377 585.204 99.3664 578.03 99.3664C570.488 99.3664 565.889 103.823 565.889 109.839C565.889 116.635 571.775 119.42 577.294 120.98L583.549 122.985C593.482 125.77 603.048 132.121 603.048 146.158C603.048 160.307 593.85 170 577.846 170C562.302 170 552.552 160.976 552 145.044H563.773C564.325 153.511 570.212 157.634 577.754 157.634C585.664 157.634 591.091 152.954 591.091 146.047C591.091 139.697 586.216 137.023 579.042 134.795L571.499 132.455C560.554 129.001 553.748 122.317 553.748 110.73C553.748 96.4698 564.233 87 578.214 87C592.379 87 601.944 96.6926 602.128 110.285H590.631Z" fill="white"/>
<path d="M637.356 108.279V119.197H627.514V150.615C627.514 156.408 629.906 157.634 632.849 157.634C634.229 157.634 636.528 157.522 638 157.411V168.997C636.62 169.332 634.321 169.554 631.378 169.554C622.548 169.554 615.741 164.318 615.833 152.954V119.197H608.659V108.279H615.833V93.796H627.514V108.279H637.356Z" fill="white"/>
<path d="M468.603 88.8851V95.3201H462.909V113.837C462.909 117.252 464.293 117.974 465.996 117.974C466.794 117.974 468.124 117.908 468.976 117.843V124.672C468.177 124.869 466.847 125 465.144 125C460.035 125 456.098 121.914 456.151 115.216V95.3201H452V88.8851H456.151V80.3488H462.909V88.8851H468.603Z" fill="white"/>
<path d="M481.268 103.659V124.54H474.457V77H481.109V94.9261H481.481C482.812 90.9207 485.579 88.4254 490.049 88.4254C496.062 88.4254 500 93.2189 500 101.821V124.54H493.242V103.134C493.242 98.275 491.113 95.5171 487.548 95.5171C483.876 95.5171 481.268 98.472 481.268 103.659Z" fill="white"/>
<path d="M316.585 52C311.703 52 308.135 48.9947 308 44.8011H312.276C312.41 46.863 314.262 48.3307 316.585 48.3307C319.312 48.3307 321.264 46.2689 321.264 43.4732C321.264 40.5727 319.244 38.5109 316.45 38.5109C314.565 38.4759 313.185 39.1749 312.41 40.6775H308.337L309.818 26.3497H324.227V30.1588H313.42L312.68 36.8684H312.915C313.858 35.7502 315.642 34.9464 317.628 34.9464C322.173 34.9464 325.506 38.4759 325.506 43.3334C325.506 48.4006 321.837 52 316.585 52Z" fill="white"/>
<path d="M352.372 50.9866L349.914 48.4705L357.287 40.8523H339.41V37.1829H357.287L349.914 29.5647L352.372 27.0486L363.885 39.0001L352.372 50.9866Z" fill="white"/>
<path d="M385.903 26.0002C390.683 26.0352 395.397 28.9706 395.43 38.2313C395.43 46.9678 391.626 52 385.633 52C380.92 52 377.688 48.9597 377.15 44.7662H381.493C381.93 46.7581 383.411 48.0511 385.633 48.0511C389.168 48.0511 391.155 44.8011 391.188 39.3845H390.919C389.673 41.5861 387.35 42.8791 384.657 42.8791C380.314 42.8791 376.948 39.4544 376.914 34.6668C376.914 29.7045 380.483 25.9653 385.903 26.0002ZM385.936 29.6696C383.209 29.6696 381.156 31.8712 381.19 34.562C381.19 37.2878 383.142 39.4195 385.869 39.4195C388.562 39.4195 390.683 37.148 390.65 34.527C390.65 31.941 388.663 29.6696 385.936 29.6696Z" fill="white"/>
<path d="M399.066 51.6505V48.3656L407.685 39.734C410.142 37.1829 411.421 35.6803 411.421 33.5486C411.421 31.2072 409.637 29.7045 407.247 29.7045C404.722 29.7045 403.106 31.347 403.14 33.898H398.965C398.931 29.1104 402.399 26.0002 407.281 26.0002C412.263 26.0002 415.63 29.0755 415.63 33.3389C415.63 36.2044 414.283 38.5109 409.503 43.1936L405.16 47.6667V47.8414H416V51.6505H399.066Z" fill="white"/>
</svg>
