<svg width="14" height="14" viewBox="0 0 14 14" fill="none" xmlns="http://www.w3.org/2000/svg">
<g clip-path="url(#clip0_255_2050)">
<path fill-rule="evenodd" clip-rule="evenodd" d="M6.58757 4.83759C6.69696 4.72823 6.8453 4.66679 6.99998 4.66679C7.15466 4.66679 7.30301 4.72823 7.4124 4.83759L10.7123 8.1375C10.8186 8.24752 10.8774 8.39487 10.876 8.54782C10.8747 8.70077 10.8134 8.84708 10.7052 8.95523C10.5971 9.06339 10.4507 9.12473 10.2978 9.12606C10.1449 9.12739 9.9975 9.06859 9.88748 8.96234L6.99998 6.07484L4.11248 8.96234C4.00247 9.06859 3.85511 9.12739 3.70217 9.12606C3.54922 9.12473 3.40291 9.06339 3.29476 8.95523C3.1866 8.84708 3.12525 8.70077 3.12392 8.54782C3.12259 8.39487 3.18139 8.24752 3.28765 8.1375L6.58757 4.83759Z" fill="black"/>
</g>
<defs>
<clipPath id="clip0_255_2050">
<rect width="14" height="14" fill="white"/>
</clipPath>
</defs>
</svg>
