<svg width="14" height="14" viewBox="0 0 14 14" fill="none" xmlns="http://www.w3.org/2000/svg">
<path fill-rule="evenodd" clip-rule="evenodd" d="M7.41243 9.16242C7.30304 9.27178 7.1547 9.33321 7.00002 9.33321C6.84534 9.33321 6.69699 9.27178 6.5876 9.16242L3.28768 5.8625C3.18142 5.75248 3.12263 5.60513 3.12396 5.45218C3.12529 5.29924 3.18663 5.15293 3.29479 5.04477C3.40294 4.93662 3.54925 4.87527 3.7022 4.87394C3.85515 4.87261 4.0025 4.93141 4.11252 5.03767L7.00002 7.92517L9.88752 5.03767C9.99753 4.93141 10.1449 4.87261 10.2978 4.87394C10.4508 4.87527 10.5971 4.93662 10.7052 5.04477C10.8134 5.15293 10.8747 5.29924 10.8761 5.45218C10.8774 5.60513 10.8186 5.75248 10.7123 5.8625L7.41243 9.16242Z" fill="black"/>
</svg>
