<svg width="54" height="34" viewBox="0 0 54 34" fill="none" xmlns="http://www.w3.org/2000/svg">
<rect x="0.5" width="53" height="34" rx="5" fill="#D60117"/>
<path d="M22.0366 15.8379C21.7892 15.8379 21.6655 15.6709 21.6655 15.3369C21.6655 15.1143 21.7026 14.805 21.7769 14.4092C21.8511 14.0133 21.9006 13.4876 21.9253 12.832C21.9129 11.1745 21.8882 10.2158 21.8511 9.95605C21.715 9.95605 21.5233 9.99316 21.2759 10.0674C20.6821 10.2158 19.272 10.4941 17.0454 10.9023C16.328 11.1374 15.6662 11.2611 15.0601 11.2734C14.7756 11.2611 14.5282 11.1559 14.3179 10.958C14.12 10.7477 14.0024 10.4818 13.9653 10.1602C13.9653 9.94987 14.0334 9.77051 14.1694 9.62207C14.256 9.52311 14.355 9.47363 14.4663 9.47363L14.6147 9.49219C14.9611 9.64062 15.3075 9.71484 15.6538 9.71484L20.144 8.9541C20.4409 8.90462 20.6883 8.83659 20.8862 8.75C21.1831 8.63867 21.4862 8.56445 21.7954 8.52734C22.0304 8.44076 22.2964 8.37891 22.5933 8.3418C23.2365 8.3418 23.5581 8.69434 23.5581 9.39941L23.5396 9.90039L23.6138 12.1084C23.6138 12.43 23.5148 12.9557 23.3169 13.6855L22.853 14.7988C22.6304 15.4915 22.3582 15.8379 22.0366 15.8379ZM17.2124 25.709C16.5321 25.709 16.1919 25.4368 16.1919 24.8926C16.1919 24.1999 16.8846 23.099 18.27 21.5898C18.9504 20.86 19.2905 20.291 19.2905 19.8828C19.2905 19.7344 19.272 19.5798 19.2349 19.4189C19.2101 19.3571 19.1978 19.2952 19.1978 19.2334C19.1978 18.8623 19.4699 18.6768 20.0142 18.6768C20.5213 18.6768 20.8739 18.8376 21.0718 19.1592C21.1584 19.2952 21.2017 19.4189 21.2017 19.5303C21.2017 19.6787 21.0965 19.8952 20.8862 20.1797C20.4657 20.8229 19.9152 21.4909 19.2349 22.1836C18.5545 22.8639 18.2144 23.3587 18.2144 23.668C18.2391 23.8535 18.3133 23.9958 18.437 24.0947C18.5607 24.1937 18.6906 24.2555 18.8267 24.2803C18.9751 24.305 19.0988 24.3174 19.1978 24.3174C19.6678 24.3174 20.1626 24.2308 20.6821 24.0576C21.214 23.8968 21.6346 23.6185 21.9438 23.2227C22.0304 23.1113 22.0737 22.9876 22.0737 22.8516C22.0737 22.7031 22.0119 22.5485 21.8882 22.3877C21.7026 22.0908 21.548 21.7445 21.4243 21.3486C21.3748 21.2002 21.3501 21.0703 21.3501 20.959C21.3501 20.7116 21.5542 20.5879 21.9624 20.5879C22.3953 20.5879 22.7541 20.7363 23.0386 21.0332C23.1499 21.1569 23.2489 21.293 23.3354 21.4414C23.4344 21.5775 23.5828 21.763 23.7808 21.998C23.9168 22.1465 24.0158 22.2578 24.0776 22.332C24.1395 22.4062 24.1704 22.5176 24.1704 22.666C24.1704 23.0247 23.9416 23.4329 23.4839 23.8906C23.1375 24.237 22.6427 24.4844 21.9995 24.6328L20.8306 24.9668C19.5688 25.3626 18.5545 25.5915 17.7876 25.6533C17.7134 25.6533 17.6763 25.6595 17.6763 25.6719C17.5402 25.6966 17.3856 25.709 17.2124 25.709ZM12.2583 19.9756C11.8748 19.9756 11.547 19.821 11.2749 19.5117C11.1265 19.3385 11.0522 19.1468 11.0522 18.9365C11.0894 18.5036 11.3615 18.2871 11.8687 18.2871L12.7593 18.3242C13.5881 18.3242 14.4045 18.2067 15.2085 17.9717L17.3979 17.4893C17.4351 17.4027 17.4598 17.3161 17.4722 17.2295C17.5835 16.6852 17.6392 16.2337 17.6392 15.875C17.7381 14.9102 17.7876 14.2546 17.7876 13.9082C17.7876 13.735 17.7257 13.5866 17.6021 13.4629C17.4784 13.3392 17.4165 13.1227 17.4165 12.8135C17.4165 12.7021 17.4351 12.5785 17.4722 12.4424C17.5093 12.3063 17.5959 12.1826 17.7319 12.0713C17.8804 11.9476 18.0659 11.8734 18.2886 11.8486C18.5112 11.8486 18.7091 11.9043 18.8823 12.0156C19.241 12.2507 19.4204 12.5846 19.4204 13.0176L19.439 13.4258C19.4142 13.5371 19.4019 13.6546 19.4019 13.7783L19.4204 14.2422C19.3957 14.7122 19.34 15.2998 19.2534 16.0049C19.1668 16.5739 19.1235 16.9512 19.1235 17.1367C21.5975 16.6172 23.3787 16.1904 24.4673 15.8564C25.3084 15.5596 26.1063 15.4111 26.8608 15.4111C27.0835 15.4111 27.2814 15.4606 27.4546 15.5596C27.6401 15.6462 27.7329 15.776 27.7329 15.9492C27.7329 16.2956 27.3866 16.6296 26.6938 16.9512C26.2609 17.2357 25.9207 17.3779 25.6733 17.3779C25.5744 17.3779 25.4816 17.347 25.395 17.2852C25.1847 17.0996 24.9435 17.0068 24.6714 17.0068C24.6095 17.0068 21.4924 17.6562 15.3198 18.9551C15.0601 19.0417 14.8127 19.1468 14.5776 19.2705C14.2437 19.4313 13.8478 19.5798 13.3901 19.7158C12.9077 19.889 12.5304 19.9756 12.2583 19.9756ZM29.7368 21.9795C29.4771 21.9548 29.3472 21.862 29.3472 21.7012C29.3472 21.5156 29.5203 21.2311 29.8667 20.8477C30.4357 20.1426 30.9862 19.3447 31.5181 18.4541C32.8045 16.3141 33.658 14.5081 34.0786 13.0361C31.9881 13.7041 30.7264 14.0381 30.2935 14.0381C29.5884 14.0381 29.1121 13.8773 28.8647 13.5557C28.7534 13.4072 28.6978 13.2588 28.6978 13.1104C28.6978 12.764 28.9328 12.5908 29.4028 12.5908C30.6151 12.5908 31.7655 12.3743 32.854 11.9414C32.8911 11.9414 32.953 11.9167 33.0396 11.8672L34.4312 11.4033C34.9136 11.0941 35.3094 10.9395 35.6187 10.9395C35.9526 10.9518 36.2124 11.1126 36.3979 11.4219C36.4722 11.5703 36.5093 11.7311 36.5093 11.9043C36.4969 12.1393 36.4289 12.3929 36.3052 12.665C35.7238 14.0505 35.1053 15.3307 34.4497 16.5059C34.8455 16.8275 35.2228 17.0872 35.5815 17.2852C36.2248 17.6686 36.8309 18.1449 37.3999 18.7139C37.5978 18.9365 37.6968 19.1221 37.6968 19.2705C37.6968 19.7158 37.4432 19.9385 36.936 19.9385C36.5278 19.8395 36.0083 19.555 35.3774 19.085C34.8208 18.6891 34.3879 18.3428 34.0786 18.0459C33.8683 17.848 33.7323 17.7305 33.6704 17.6934C32.6932 19.0417 31.617 20.3281 30.4419 21.5527C30.1574 21.8372 29.9224 21.9795 29.7368 21.9795ZM40.1274 25.1523C39.8182 25.1523 39.6636 24.6514 39.6636 23.6494C39.6636 23.3154 39.7007 22.9814 39.7749 22.6475L39.7935 22.1279L39.7749 21.4785C39.7873 20.8724 39.7935 20.2539 39.7935 19.623L39.7749 10.8467C39.7502 10.5869 39.6883 10.3395 39.5894 10.1045C39.4904 9.8571 39.4409 9.60352 39.4409 9.34375C39.4533 8.84896 39.6636 8.50879 40.0718 8.32324C40.2078 8.27376 40.3377 8.24902 40.4614 8.24902C40.7088 8.24902 40.9253 8.36654 41.1108 8.60156C41.2964 8.83659 41.3892 9.11491 41.3892 9.43652C41.3273 10.2282 41.2964 10.7106 41.2964 10.8838C41.2964 11.9476 41.3088 13.2835 41.3335 14.8916L41.2778 22.1836C41.2778 22.8516 41.0552 23.6123 40.6099 24.4658C40.5356 24.6266 40.4614 24.7812 40.3872 24.9297C40.3254 25.0781 40.2388 25.1523 40.1274 25.1523Z" fill="white"/>
</svg>
