<svg width="34" height="31" viewBox="0 0 34 31" fill="none" xmlns="http://www.w3.org/2000/svg">
<path d="M3.66659 3.66665H8.66658L11.9999 0.333313H21.9999L25.3333 3.66665H30.3333C31.2173 3.66665 32.0652 4.01784 32.6903 4.64296C33.3154 5.26808 33.6666 6.11592 33.6666 6.99998V27C33.6666 27.884 33.3154 28.7319 32.6903 29.357C32.0652 29.9821 31.2173 30.3333 30.3333 30.3333H3.66659C2.78253 30.3333 1.93468 29.9821 1.30956 29.357C0.684441 28.7319 0.333252 27.884 0.333252 27V6.99998C0.333252 6.11592 0.684441 5.26808 1.30956 4.64296C1.93468 4.01784 2.78253 3.66665 3.66659 3.66665ZM16.9999 8.66665C14.7898 8.66665 12.6702 9.54462 11.1074 11.1074C9.54456 12.6702 8.66658 14.7898 8.66658 17C8.66658 19.2101 9.54456 21.3297 11.1074 22.8925C12.6702 24.4553 14.7898 25.3333 16.9999 25.3333C19.2101 25.3333 21.3297 24.4553 22.8925 22.8925C24.4553 21.3297 25.3333 19.2101 25.3333 17C25.3333 14.7898 24.4553 12.6702 22.8925 11.1074C21.3297 9.54462 19.2101 8.66665 16.9999 8.66665ZM16.9999 12C18.326 12 19.5978 12.5268 20.5355 13.4644C21.4731 14.4021 21.9999 15.6739 21.9999 17C21.9999 18.3261 21.4731 19.5978 20.5355 20.5355C19.5978 21.4732 18.326 22 16.9999 22C15.6738 22 14.4021 21.4732 13.4644 20.5355C12.5267 19.5978 11.9999 18.3261 11.9999 17C11.9999 15.6739 12.5267 14.4021 13.4644 13.4644C14.4021 12.5268 15.6738 12 16.9999 12Z" fill="black"/>
</svg>
