<svg width="24" height="25" viewBox="0 0 24 25" fill="none" xmlns="http://www.w3.org/2000/svg">
<path fill-rule="evenodd" clip-rule="evenodd" d="M14.385 15.946C13.037 17.0231 11.3277 17.5432 9.60817 17.3994C7.88868 17.2555 6.28952 16.4588 5.13913 15.1727C3.98874 13.8867 3.37446 12.2089 3.42244 10.4841C3.47043 8.75926 4.17704 7.11827 5.39716 5.89816C6.61727 4.67805 8.25826 3.97144 9.98309 3.92345C11.7079 3.87546 13.3857 4.48975 14.6717 5.64014C15.9578 6.79052 16.7545 8.38969 16.8983 10.1092C17.0422 11.8287 16.5221 13.538 15.445 14.886L20.601 20.041C20.6747 20.1097 20.7338 20.1925 20.7748 20.2845C20.8158 20.3765 20.8378 20.4758 20.8396 20.5765C20.8414 20.6772 20.8228 20.7772 20.7851 20.8706C20.7474 20.964 20.6913 21.0488 20.62 21.12C20.5488 21.1913 20.464 21.2474 20.3706 21.2851C20.2772 21.3228 20.1772 21.3414 20.0765 21.3396C19.9758 21.3378 19.8765 21.3158 19.7845 21.2748C19.6925 21.2338 19.6097 21.1747 19.541 21.101L14.385 15.946ZM6.46 14.384C5.72604 13.65 5.22615 12.7148 5.02351 11.6968C4.82087 10.6787 4.92457 9.62344 5.32151 8.6643C5.71845 7.70517 6.39081 6.88523 7.25361 6.30811C8.11642 5.73098 9.13094 5.42259 10.169 5.42189C11.207 5.42119 12.2219 5.72822 13.0855 6.30418C13.9491 6.88014 14.6226 7.69918 15.0208 8.65778C15.419 9.61638 15.5241 10.6715 15.3229 11.6898C15.1216 12.7082 14.623 13.644 13.89 14.379L13.885 14.384L13.88 14.388C12.8951 15.3706 11.5604 15.9221 10.1692 15.9214C8.77792 15.9206 7.44385 15.3677 6.46 14.384Z" fill="white"/>
</svg>
