<svg width="14" height="14" viewBox="0 0 14 14" fill="none" xmlns="http://www.w3.org/2000/svg">
<g id="system-uicons:speech-typing">
<g id="Group">
<path id="Vector" fill-rule="evenodd" clip-rule="evenodd" d="M6.66667 11.0113C3.72133 11.0113 1.33333 8.994 1.33333 6.506C1.33333 4.01733 3.72133 2 6.66667 2C9.612 2 12 4.01733 12 6.506C12 7.47733 11.636 8.37733 11.0167 9.11267L11.6667 12.1667L9.056 10.5353C8.2995 10.8525 7.48696 11.0144 6.66667 11.0113Z" stroke="#D60117" stroke-width="0.666667" stroke-linecap="round" stroke-linejoin="round"/>
<path id="Vector_2" fill-rule="evenodd" clip-rule="evenodd" d="M6.66733 7.33333C6.334 7.33333 6.00067 7 6.00067 6.66667C6.00067 6.33333 6.334 6 6.66733 6C7.00067 6 7.33333 6.33333 7.33333 6.66667C7.33333 7 7.00067 7.33333 6.66733 7.33333ZM9.334 7.33333C9.00067 7.33333 8.66733 7 8.66733 6.66667C8.66733 6.33333 9.00067 6 9.334 6C9.66733 6 10 6.33333 10 6.66667C10 7 9.66733 7.33333 9.334 7.33333ZM4.00067 7.33333C3.66733 7.33333 3.33333 7 3.33333 6.66667C3.33333 6.33333 3.66667 6 4 6C4.33333 6 4.66667 6.33333 4.66667 6.66667C4.66667 7 4.33333 7.33333 4 7.33333" fill="#D60117"/>
</g>
</g>
</svg>
