<svg width="37" height="35" viewBox="0 0 37 35" fill="none" xmlns="http://www.w3.org/2000/svg">
<path id="Vector" d="M9.34868 34.3502C7.83557 35.263 5.96883 33.9086 6.36707 32.187L8.41605 23.329C8.583 22.6073 8.33735 21.8524 7.77763 21.3672L0.903207 15.4072C-0.431851 14.2498 0.280046 12.0564 2.04037 11.9036L11.133 11.1143C11.8714 11.0502 12.5137 10.583 12.8023 9.90037L16.3244 1.56684C17.0126 -0.0616956 19.3205 -0.0616972 20.0088 1.56684L23.5309 9.90037C23.8194 10.583 24.4618 11.0502 25.2002 11.1143L34.2928 11.9036C36.0531 12.0564 36.765 14.2498 35.43 15.4072L28.5555 21.3672C27.9958 21.8524 27.7502 22.6073 27.9171 23.329L29.9661 32.187C30.3643 33.9086 28.4976 35.263 26.9845 34.3502L19.1996 29.6541C18.5643 29.2708 17.7689 29.2708 17.1335 29.6541L9.34868 34.3502Z" fill="#FFA4AE"/>
</svg>
