<svg width="37" height="35" viewBox="0 0 37 35" fill="none" xmlns="http://www.w3.org/2000/svg">
<path id="Vector" d="M9.4989 33.494C8.74234 33.9503 7.80897 33.2732 8.0081 32.4123L10.0571 23.5544C10.3075 22.4718 9.93902 21.3395 9.09944 20.6116L2.22502 14.6517C1.55749 14.0729 1.91344 12.9762 2.7936 12.8998L11.8862 12.1105C12.9938 12.0144 13.9573 11.3137 14.3901 10.2897L17.9122 1.95614C18.2564 1.14187 19.4103 1.14187 19.7544 1.95614L23.2765 10.2897C23.7093 11.3137 24.6729 12.0144 25.7804 12.1105L34.8731 12.8998C35.7532 12.9762 36.1092 14.0729 35.4416 14.6517L28.5672 20.6116C27.7276 21.3395 27.3592 22.4718 27.6096 23.5544L29.6586 32.4123C29.8577 33.2731 28.9243 33.9503 28.1678 33.494L20.3829 28.7978C19.4299 28.2229 18.2368 28.2229 17.2837 28.7978L9.4989 33.494Z" stroke="#FFA4AE" stroke-width="2"/>
</svg>
