<svg width="14" height="14" viewBox="0 0 14 14" fill="none" xmlns="http://www.w3.org/2000/svg">
<g clip-path="url(#clip0_255_1713)">
<path d="M6.99996 2.33331C8.62571 2.33331 10.07 3.06656 11.0985 3.97423C11.6147 4.42981 12.04 4.9414 12.3398 5.45065C12.6344 5.95056 12.8333 6.49248 12.8333 6.99998C12.8333 7.50748 12.635 8.0494 12.3398 8.54931C12.04 9.05856 11.6147 9.57015 11.0985 10.0257C10.07 10.9334 8.62513 11.6666 6.99996 11.6666C5.37421 11.6666 3.92988 10.9334 2.90146 10.0257C2.38521 9.57015 1.95996 9.05856 1.66013 8.54931C1.36496 8.0494 1.16663 7.50748 1.16663 6.99998C1.16663 6.49248 1.36496 5.95056 1.66013 5.45065C1.95996 4.9414 2.38521 4.42981 2.90146 3.97423C3.92988 3.06656 5.37479 2.33331 6.99996 2.33331ZM6.99996 3.49998C5.72596 3.49998 4.54529 4.07923 3.67379 4.84865C3.23979 5.23131 2.89679 5.64956 2.66521 6.04273C2.42838 6.44523 2.33329 6.77831 2.33329 6.99998C2.33329 7.22165 2.42838 7.55473 2.66521 7.95723C2.89679 8.3504 3.23979 8.76806 3.67379 9.15131C4.54529 9.92073 5.72596 10.5 6.99996 10.5C8.27396 10.5 9.45463 9.92073 10.3261 9.15131C10.7601 8.76806 11.1031 8.3504 11.3347 7.95723C11.5715 7.55473 11.6666 7.22165 11.6666 6.99998C11.6666 6.77831 11.5715 6.44523 11.3347 6.04273C11.1031 5.64956 10.7601 5.2319 10.3261 4.84865C9.45463 4.07923 8.27396 3.49998 6.99996 3.49998ZM6.99996 5.24998C7.05129 5.24998 7.10204 5.25231 7.15221 5.2564C7.02556 5.47856 6.97542 5.73619 7.00949 5.98963C7.04356 6.24308 7.15997 6.47832 7.34079 6.65914C7.52162 6.83997 7.75686 6.95638 8.0103 6.99045C8.26375 7.02452 8.52138 6.97438 8.74354 6.84773C8.77422 7.199 8.69807 7.55133 8.52507 7.85858C8.35208 8.16583 8.0903 8.41365 7.77405 8.56957C7.4578 8.7255 7.10182 8.78225 6.75276 8.7324C6.4037 8.68255 6.07784 8.52842 5.81788 8.2902C5.55791 8.05198 5.37598 7.74079 5.2959 7.3974C5.21583 7.05401 5.24135 6.69444 5.36913 6.3658C5.49691 6.03717 5.72098 5.7548 6.01199 5.55569C6.30299 5.35658 6.64736 5.25002 6.99996 5.24998Z" fill="#5C5C5C"/>
</g>
<defs>
<clipPath id="clip0_255_1713">
<rect width="14" height="14" fill="white"/>
</clipPath>
</defs>
</svg>
